<?xml version="1.0"?><svg width="327.12131" height="236" xmlns="http://www.w3.org/2000/svg" xmlns:xlink="http://www.w3.org/1999/xlink">
 <title>Grass</title>
 <defs>
  <linearGradient id="linearGradient4394">
   <stop stop-color="#366b04" id="stop4396" offset="0"/>
   <stop stop-color="#366b04" stop-opacity="0" id="stop4398" offset="1"/>
  </linearGradient>
  <linearGradient id="linearGradient3814">
   <stop stop-color="#336404" id="stop3816" offset="0"/>
   <stop stop-color="#336404" stop-opacity="0" id="stop3818" offset="1"/>
  </linearGradient>
  <linearGradient id="linearGradient3308">
   <stop stop-color="#336404" offset="0" id="stop3310"/>
   <stop stop-color="#4e9a06" offset="1" id="stop3312"/>
  </linearGradient>
  <linearGradient id="linearGradient3302">
   <stop stop-color="#336404" offset="0" id="stop3304"/>
   <stop stop-color="#4e9a06" offset="1" id="stop3306"/>
  </linearGradient>
  <linearGradient id="linearGradient3294">
   <stop stop-color="#4e9a06" offset="0" id="stop3296"/>
   <stop stop-color="#336404" offset="1" id="stop3298"/>
  </linearGradient>
  <linearGradient id="linearGradient3284">
   <stop stop-color="#336404" offset="0" id="stop3286"/>
   <stop stop-color="#4e9a06" offset="1" id="stop3288"/>
  </linearGradient>
  <linearGradient id="linearGradient3228">
   <stop stop-color="#73d216" id="stop3230" offset="0"/>
   <stop stop-color="#4e9a06" id="stop3232" offset="1"/>
  </linearGradient>
  <linearGradient y2="0.219419" x2="0.05496" y1="0.214709" x1="0.645499" id="linearGradient3387" xlink:href="#linearGradient3228"/>
  <linearGradient y2="0.183268" x2="-0.092293" y1="0.17834" x1="0.592129" id="linearGradient3390" xlink:href="#linearGradient3228"/>
  <linearGradient y2="0.34457" x2="-0.184628" y1="0.340615" x1="0.499794" id="linearGradient3393" xlink:href="#linearGradient3228"/>
  <linearGradient y2="0.193627" x2="0.373382" y1="0.147749" x1="0.000145" id="linearGradient3396" xlink:href="#linearGradient3228"/>
  <linearGradient y2="0.081567" x2="0.024709" y1="0.068612" x1="0.553603" id="linearGradient3399" xlink:href="#linearGradient3228"/>
  <linearGradient y2="0.000023" x2="0.00025" y1="0.588349" x1="0.999959" id="linearGradient3402" xlink:href="#linearGradient3284"/>
  <linearGradient y2="0.31484" x2="1.436673" y1="0.308053" x1="0.829336" id="linearGradient3405" xlink:href="#linearGradient3294"/>
  <linearGradient y2="0.183836" x2="-0.262249" y1="0.178912" x1="0.526228" id="linearGradient3408" xlink:href="#linearGradient3308"/>
  <linearGradient y2="-0.078102" x2="0.999723" y1="0.556186" x1="-0.653406" id="linearGradient3411" xlink:href="#linearGradient3284"/>
  <linearGradient y2="0.118621" x2="-0.223982" y1="0.113303" x1="0.449321" id="linearGradient3414" xlink:href="#linearGradient3302"/>
  <linearGradient y2="0.219419" x2="0.054724" y1="0.214709" x1="0.645263" id="linearGradient3448" xlink:href="#linearGradient3228"/>
  <linearGradient y2="0.219419" x2="0.054803" y1="0.214709" x1="0.645342" id="linearGradient3451" xlink:href="#linearGradient3228"/>
  <linearGradient y2="0.183268" x2="-0.092152" y1="0.17834" x1="0.59227" id="linearGradient3454" xlink:href="#linearGradient3228"/>
  <linearGradient y2="0.344574" x2="1.184353" y1="0.340619" x1="0.499931" id="linearGradient3457" xlink:href="#linearGradient3228"/>
  <linearGradient y2="0.193627" x2="0.373349" y1="0.147749" x1="0.00002" id="linearGradient3460" xlink:href="#linearGradient3228"/>
  <linearGradient y2="0.068681" x2="-0.263463" y1="0.055545" x1="0.42157" id="linearGradient3463" xlink:href="#linearGradient3228"/>
  <linearGradient y2="0.000023" x2="0.000125" y1="0.588349" x1="1.000147" id="linearGradient3466" xlink:href="#linearGradient3284"/>
  <linearGradient y2="0.31484" x2="1.436609" y1="0.308053" x1="0.829272" id="linearGradient3469" xlink:href="#linearGradient3294"/>
  <linearGradient y2="0.280629" x2="-0.262707" y1="0.276289" x1="0.526136" id="linearGradient3472" xlink:href="#linearGradient3308"/>
  <linearGradient y2="-0.078102" x2="0.999594" y1="0.556186" x1="-0.652683" id="linearGradient3475" xlink:href="#linearGradient3284"/>
  <linearGradient y2="0.118621" x2="-0.224203" y1="0.113303" x1="0.449366" id="linearGradient3478" xlink:href="#linearGradient3302"/>
  <linearGradient y2="0.183268" x2="1.092173" y1="0.17834" x1="0.407751" id="linearGradient3683" xlink:href="#linearGradient3228"/>
  <linearGradient y2="0.34457" x2="1.184471" y1="0.340615" x1="0.500049" id="linearGradient3686" xlink:href="#linearGradient3228"/>
  <linearGradient y2="0.193627" x2="0.62669" y1="0.147749" x1="1.00002" id="linearGradient3689" xlink:href="#linearGradient3228"/>
  <linearGradient y2="0.081567" x2="0.975227" y1="0.068612" x1="0.446557" id="linearGradient3692" xlink:href="#linearGradient3228"/>
  <linearGradient y2="0.31484" x2="-0.435977" y1="0.308053" x1="0.171042" id="linearGradient3698" xlink:href="#linearGradient3294"/>
  <linearGradient y2="0.183836" x2="1.262761" y1="0.178912" x1="0.473919" id="linearGradient3701" xlink:href="#linearGradient3308"/>
  <linearGradient y2="-0.078102" x2="0.0002" y1="0.556186" x1="1.653329" id="linearGradient3704" xlink:href="#linearGradient3284"/>
  <linearGradient y2="0.118621" x2="1.224334" y1="0.113303" x1="0.550765" id="linearGradient3707" xlink:href="#linearGradient3302"/>
  <linearGradient y2="0.219419" x2="0.945187" y1="0.214709" x1="0.354648" id="linearGradient3710" xlink:href="#linearGradient3228"/>
  <linearGradient y2="0.219419" x2="0.945101" y1="0.214709" x1="0.354561" id="linearGradient3713" xlink:href="#linearGradient3228"/>
  <linearGradient y2="0.183268" x2="1.091961" y1="0.17834" x1="0.407865" id="linearGradient3716" xlink:href="#linearGradient3228"/>
  <linearGradient y2="0.344574" x2="-0.184461" y1="0.340619" x1="0.499961" id="linearGradient3719" xlink:href="#linearGradient3228"/>
  <linearGradient y2="0.193627" x2="0.626711" y1="0.147749" x1="0.999948" id="linearGradient3722" xlink:href="#linearGradient3228"/>
  <linearGradient y2="0.068681" x2="1.263321" y1="0.055545" x1="0.578288" id="linearGradient3725" xlink:href="#linearGradient3228"/>
  <linearGradient y2="0.000023" x2="0.999772" y1="0.588349" x1="0.000062" id="linearGradient3728" xlink:href="#linearGradient3284"/>
  <linearGradient y2="0.31484" x2="-0.436686" y1="0.308053" x1="0.17065" id="linearGradient3731" xlink:href="#linearGradient3294"/>
  <linearGradient y2="0.280629" x2="1.262565" y1="0.276289" x1="0.473723" id="linearGradient3734" xlink:href="#linearGradient3308"/>
  <linearGradient y2="-0.078102" x2="0.000301" y1="0.556186" x1="1.65343" id="linearGradient3737" xlink:href="#linearGradient3284"/>
  <linearGradient y2="0.118621" x2="1.224075" y1="0.113303" x1="0.550772" id="linearGradient3740" xlink:href="#linearGradient3302"/>
  <linearGradient y2="-0.245316" x2="0.480457" y1="0.93574" x1="0.480457" id="linearGradient3820" xlink:href="#linearGradient3814"/>
  <linearGradient y2="-0.245316" x2="0.480457" y1="0.93574" x1="0.480457" id="linearGradient3952" xlink:href="#linearGradient3814"/>
  <linearGradient y2="0.118621" x2="-0.224203" y1="0.113303" x1="0.449366" id="linearGradient3954" xlink:href="#linearGradient3302"/>
  <linearGradient y2="-0.078102" x2="0.999594" y1="0.556186" x1="-0.652683" id="linearGradient3956" xlink:href="#linearGradient3284"/>
  <linearGradient y2="0.280629" x2="-0.262707" y1="0.276289" x1="0.526136" id="linearGradient3958" xlink:href="#linearGradient3308"/>
  <linearGradient y2="0.31484" x2="1.436609" y1="0.308053" x1="0.829272" id="linearGradient3960" xlink:href="#linearGradient3294"/>
  <linearGradient y2="0.000023" x2="0.000125" y1="0.588349" x1="1.000147" id="linearGradient3962" xlink:href="#linearGradient3284"/>
  <linearGradient y2="0.068681" x2="-0.263463" y1="0.055545" x1="0.42157" id="linearGradient3964" xlink:href="#linearGradient3228"/>
  <linearGradient y2="0.193627" x2="0.373349" y1="0.147749" x1="0.00002" id="linearGradient3966" xlink:href="#linearGradient3228"/>
  <linearGradient y2="0.344574" x2="1.184353" y1="0.340619" x1="0.499931" id="linearGradient3968" xlink:href="#linearGradient3228"/>
  <linearGradient y2="0.183268" x2="-0.092152" y1="0.17834" x1="0.59227" id="linearGradient3970" xlink:href="#linearGradient3228"/>
  <linearGradient y2="0.219419" x2="0.054803" y1="0.214709" x1="0.645342" id="linearGradient3972" xlink:href="#linearGradient3228"/>
  <linearGradient y2="0.219419" x2="0.054724" y1="0.214709" x1="0.645263" id="linearGradient3974" xlink:href="#linearGradient3228"/>
  <linearGradient y2="0.118621" x2="-0.223982" y1="0.113303" x1="0.449321" id="linearGradient3976" xlink:href="#linearGradient3302"/>
  <linearGradient y2="-0.078102" x2="0.999723" y1="0.556186" x1="-0.653406" id="linearGradient3978" xlink:href="#linearGradient3284"/>
  <linearGradient y2="0.183836" x2="-0.262249" y1="0.178912" x1="0.526228" id="linearGradient3980" xlink:href="#linearGradient3308"/>
  <linearGradient y2="0.31484" x2="1.436673" y1="0.308053" x1="0.829336" id="linearGradient3982" xlink:href="#linearGradient3294"/>
  <linearGradient y2="0.000023" x2="0.00025" y1="0.588349" x1="0.999959" id="linearGradient3984" xlink:href="#linearGradient3284"/>
  <linearGradient y2="0.081567" x2="0.024709" y1="0.068612" x1="0.553603" id="linearGradient3986" xlink:href="#linearGradient3228"/>
  <linearGradient y2="0.193627" x2="0.373382" y1="0.147749" x1="0.000145" id="linearGradient3988" xlink:href="#linearGradient3228"/>
  <linearGradient y2="0.34457" x2="-0.184628" y1="0.340615" x1="0.499794" id="linearGradient3990" xlink:href="#linearGradient3228"/>
  <linearGradient y2="0.183268" x2="-0.092293" y1="0.17834" x1="0.592129" id="linearGradient3992" xlink:href="#linearGradient3228"/>
  <linearGradient y2="0.219419" x2="0.05496" y1="0.214709" x1="0.645499" id="linearGradient3994" xlink:href="#linearGradient3228"/>
  <linearGradient y2="0.118621" x2="1.224075" y1="0.113303" x1="0.550772" id="linearGradient3996" xlink:href="#linearGradient3302"/>
  <linearGradient y2="-0.078102" x2="0.000301" y1="0.556186" x1="1.65343" id="linearGradient3998" xlink:href="#linearGradient3284"/>
  <linearGradient y2="0.280629" x2="1.262565" y1="0.276289" x1="0.473723" id="linearGradient4000" xlink:href="#linearGradient3308"/>
  <linearGradient y2="0.31484" x2="-0.436686" y1="0.308053" x1="0.17065" id="linearGradient4002" xlink:href="#linearGradient3294"/>
  <linearGradient y2="0.000023" x2="0.999772" y1="0.588349" x1="0.000062" id="linearGradient4004" xlink:href="#linearGradient3284"/>
  <linearGradient y2="0.068681" x2="1.263321" y1="0.055545" x1="0.578288" id="linearGradient4006" xlink:href="#linearGradient3228"/>
  <linearGradient y2="0.193627" x2="0.626711" y1="0.147749" x1="0.999948" id="linearGradient4008" xlink:href="#linearGradient3228"/>
  <linearGradient y2="0.344574" x2="-0.184461" y1="0.340619" x1="0.499961" id="linearGradient4010" xlink:href="#linearGradient3228"/>
  <linearGradient y2="0.183268" x2="1.091961" y1="0.17834" x1="0.407865" id="linearGradient4012" xlink:href="#linearGradient3228"/>
  <linearGradient y2="0.219419" x2="0.945101" y1="0.214709" x1="0.354561" id="linearGradient4014" xlink:href="#linearGradient3228"/>
  <linearGradient y2="0.219419" x2="0.945187" y1="0.214709" x1="0.354648" id="linearGradient4016" xlink:href="#linearGradient3228"/>
  <linearGradient y2="0.118621" x2="1.224334" y1="0.113303" x1="0.550765" id="linearGradient4018" xlink:href="#linearGradient3302"/>
  <linearGradient y2="-0.078102" x2="0.0002" y1="0.556186" x1="1.653329" id="linearGradient4020" xlink:href="#linearGradient3284"/>
  <linearGradient y2="0.183836" x2="1.262761" y1="0.178912" x1="0.473919" id="linearGradient4022" xlink:href="#linearGradient3308"/>
  <linearGradient y2="0.31484" x2="-0.435977" y1="0.308053" x1="0.171042" id="linearGradient4024" xlink:href="#linearGradient3294"/>
  <linearGradient y2="0.081567" x2="0.975227" y1="0.068612" x1="0.446557" id="linearGradient4026" xlink:href="#linearGradient3228"/>
  <linearGradient y2="0.193627" x2="0.62669" y1="0.147749" x1="1.00002" id="linearGradient4028" xlink:href="#linearGradient3228"/>
  <linearGradient y2="0.34457" x2="1.184471" y1="0.340615" x1="0.500049" id="linearGradient4030" xlink:href="#linearGradient3228"/>
  <linearGradient y2="0.183268" x2="1.092173" y1="0.17834" x1="0.407751" id="linearGradient4032" xlink:href="#linearGradient3228"/>
  <linearGradient y2="-0.245316" x2="0.480457" y1="0.93574" x1="0.480457" id="linearGradient4288" xlink:href="#linearGradient3814"/>
  <linearGradient y2="0.118621" x2="-0.224203" y1="0.113303" x1="0.449366" id="linearGradient4290" xlink:href="#linearGradient3302"/>
  <linearGradient y2="-0.078102" x2="0.999594" y1="0.556186" x1="-0.652683" id="linearGradient4292" xlink:href="#linearGradient3284"/>
  <linearGradient y2="0.280629" x2="-0.262707" y1="0.276289" x1="0.526136" id="linearGradient4294" xlink:href="#linearGradient3308"/>
  <linearGradient y2="0.31484" x2="1.436609" y1="0.308053" x1="0.829272" id="linearGradient4296" xlink:href="#linearGradient3294"/>
  <linearGradient y2="0.000023" x2="0.000125" y1="0.588349" x1="1.000147" id="linearGradient4298" xlink:href="#linearGradient3284"/>
  <linearGradient y2="0.068681" x2="-0.263463" y1="0.055545" x1="0.42157" id="linearGradient4300" xlink:href="#linearGradient3228"/>
  <linearGradient y2="0.193627" x2="0.373349" y1="0.147749" x1="0.00002" id="linearGradient4302" xlink:href="#linearGradient3228"/>
  <linearGradient y2="0.344574" x2="1.184353" y1="0.340619" x1="0.499931" id="linearGradient4304" xlink:href="#linearGradient3228"/>
  <linearGradient y2="0.183268" x2="-0.092152" y1="0.17834" x1="0.59227" id="linearGradient4306" xlink:href="#linearGradient3228"/>
  <linearGradient y2="0.219419" x2="0.054803" y1="0.214709" x1="0.645342" id="linearGradient4308" xlink:href="#linearGradient3228"/>
  <linearGradient y2="0.219419" x2="0.054724" y1="0.214709" x1="0.645263" id="linearGradient4310" xlink:href="#linearGradient3228"/>
  <linearGradient y2="0.118621" x2="-0.223982" y1="0.113303" x1="0.449321" id="linearGradient4312" xlink:href="#linearGradient3302"/>
  <linearGradient y2="-0.078102" x2="0.999723" y1="0.556186" x1="-0.653406" id="linearGradient4314" xlink:href="#linearGradient3284"/>
  <linearGradient y2="0.183836" x2="-0.262249" y1="0.178912" x1="0.526228" id="linearGradient4316" xlink:href="#linearGradient3308"/>
  <linearGradient y2="0.31484" x2="1.436673" y1="0.308053" x1="0.829336" id="linearGradient4318" xlink:href="#linearGradient3294"/>
  <linearGradient y2="0.000023" x2="0.00025" y1="0.588349" x1="0.999959" id="linearGradient4320" xlink:href="#linearGradient3284"/>
  <linearGradient y2="0.081567" x2="0.024709" y1="0.068612" x1="0.553603" id="linearGradient4322" xlink:href="#linearGradient3228"/>
  <linearGradient y2="0.193627" x2="0.373382" y1="0.147749" x1="0.000145" id="linearGradient4324" xlink:href="#linearGradient3228"/>
  <linearGradient y2="0.34457" x2="-0.184628" y1="0.340615" x1="0.499794" id="linearGradient4326" xlink:href="#linearGradient3228"/>
  <linearGradient y2="0.183268" x2="-0.092293" y1="0.17834" x1="0.592129" id="linearGradient4328" xlink:href="#linearGradient3228"/>
  <linearGradient y2="0.219419" x2="0.05496" y1="0.214709" x1="0.645499" id="linearGradient4330" xlink:href="#linearGradient3228"/>
  <linearGradient y2="0.118621" x2="1.224075" y1="0.113303" x1="0.550772" id="linearGradient4332" xlink:href="#linearGradient3302"/>
  <linearGradient y2="-0.078102" x2="0.000301" y1="0.556186" x1="1.65343" id="linearGradient4334" xlink:href="#linearGradient3284"/>
  <linearGradient y2="0.280629" x2="1.262565" y1="0.276289" x1="0.473723" id="linearGradient4336" xlink:href="#linearGradient3308"/>
  <linearGradient y2="0.31484" x2="-0.436686" y1="0.308053" x1="0.17065" id="linearGradient4338" xlink:href="#linearGradient3294"/>
  <linearGradient y2="0.000023" x2="0.999772" y1="0.588349" x1="0.000062" id="linearGradient4340" xlink:href="#linearGradient3284"/>
  <linearGradient y2="0.068681" x2="1.263321" y1="0.055545" x1="0.578288" id="linearGradient4342" xlink:href="#linearGradient3228"/>
  <linearGradient y2="0.193627" x2="0.626711" y1="0.147749" x1="0.999948" id="linearGradient4344" xlink:href="#linearGradient3228"/>
  <linearGradient y2="0.344574" x2="-0.184461" y1="0.340619" x1="0.499961" id="linearGradient4346" xlink:href="#linearGradient3228"/>
  <linearGradient y2="0.183268" x2="1.091961" y1="0.17834" x1="0.407865" id="linearGradient4348" xlink:href="#linearGradient3228"/>
  <linearGradient y2="0.219419" x2="0.945101" y1="0.214709" x1="0.354561" id="linearGradient4350" xlink:href="#linearGradient3228"/>
  <linearGradient y2="0.219419" x2="0.945187" y1="0.214709" x1="0.354648" id="linearGradient4352" xlink:href="#linearGradient3228"/>
  <linearGradient y2="0.118621" x2="1.224334" y1="0.113303" x1="0.550765" id="linearGradient4354" xlink:href="#linearGradient3302"/>
  <linearGradient y2="-0.078102" x2="0.0002" y1="0.556186" x1="1.653329" id="linearGradient4356" xlink:href="#linearGradient3284"/>
  <linearGradient y2="0.183836" x2="1.262761" y1="0.178912" x1="0.473919" id="linearGradient4358" xlink:href="#linearGradient3308"/>
  <linearGradient y2="0.31484" x2="-0.435977" y1="0.308053" x1="0.171042" id="linearGradient4360" xlink:href="#linearGradient3294"/>
  <linearGradient y2="0.081567" x2="0.975227" y1="0.068612" x1="0.446557" id="linearGradient4362" xlink:href="#linearGradient3228"/>
  <linearGradient y2="0.193627" x2="0.62669" y1="0.147749" x1="1.00002" id="linearGradient4364" xlink:href="#linearGradient3228"/>
  <linearGradient y2="0.34457" x2="1.184471" y1="0.340615" x1="0.500049" id="linearGradient4366" xlink:href="#linearGradient3228"/>
  <linearGradient y2="0.183268" x2="1.092173" y1="0.17834" x1="0.407751" id="linearGradient4368" xlink:href="#linearGradient3228"/>
  <linearGradient y2="-0.004445" x2="0.51682" y1="1.229128" x1="0.51682" id="linearGradient4400" xlink:href="#linearGradient4394"/>
 </defs>
 <metadata id="metadata7">image/svg+xml</metadata>
 <g>
  <title>Layer 1</title>
  <g id="g3822">
   <path fill="url(#linearGradient3820)" fill-rule="nonzero" stroke-width="2" stroke-linecap="round" stroke-linejoin="bevel" marker-start="none" marker-mid="none" marker-end="none" stroke-miterlimit="4" stroke-dashoffset="0" d="m47.65654,152.613068c-1.676697,2.747498 -6.882339,21.475647 -8.736069,21.15625c-1.871246,0.095093 -2.037369,-4.236694 -2.258301,-8.25c-0.187531,-3.406006 -0.40979,-6.586548 -1.782883,-6.59375c-1.703156,-0.008972 -8.621124,11.135254 -11.677826,10.375c-0.90654,-0.225464 -0.08139,-6.675354 -0.416,-8.5625l-3.71431,18.53125l-6.745209,-16.15625l-6.032059,7.09375l-4.368027,-4.125l0,70.375l48.93985,0l8.5578,0l48.93985,0l0,-65.34375l-4.368027,3.84375l-6.032059,-6.59375l-6.745209,15l-3.71431,-17.21875c-0.334595,1.752075 0.49054,7.759399 -0.416,7.96875c-3.056686,0.70575 -9.97467,-9.633301 -11.677826,-9.625c-1.373093,0.006714 -1.595352,2.931519 -1.782883,6.09375c-0.220932,3.726013 -0.387054,7.775757 -2.258301,7.6875c-1.853729,0.296509 -7.059372,-17.105408 -8.736069,-19.65625c-1.620087,2.148438 1.504303,7.101563 -1.0103,9.25l-2.347443,-2.09375l-4.635483,-8.875l-5.97261,5.6875c-2.514603,-2.314087 0.609802,-7.654724 -1.0103,-9.96875z" id="path3507"/>
   <path fill="url(#linearGradient3478)" fill-rule="nonzero" stroke-width="2" stroke-linecap="round" stroke-linejoin="bevel" marker-start="none" marker-mid="none" marker-end="none" stroke-miterlimit="4" stroke-dashoffset="0" id="path3270" d="m14.481842,172.298492c0,0 -5.808441,26.746643 -6.085617,40.583801c-0.151703,7.573303 -3.806824,24.897644 -3.806824,24.897644l6.344681,0.220337c0,0 2.392792,-29.15802 2.070023,-43.045593c-0.208145,-8.955933 1.477737,-22.656189 1.477737,-22.656189z"/>
   <path fill="url(#linearGradient3475)" fill-rule="nonzero" stroke-width="2" stroke-linecap="round" stroke-linejoin="bevel" marker-start="none" marker-mid="none" marker-end="none" stroke-miterlimit="4" stroke-dashoffset="0" id="path3318" d="m22.571732,147.521362c0,0 3.777054,33.59549 3.535461,53.800934c-0.132217,11.058777 -3.318039,36.356262 -3.318039,36.356262l5.53006,0.321716c0,0 2.085571,-42.577393 1.804245,-62.856445c-0.181427,-13.077698 -7.551727,-27.622467 -7.551727,-27.622467z"/>
   <path fill="url(#linearGradient3472)" fill-rule="nonzero" stroke-width="2" stroke-linecap="round" stroke-linejoin="bevel" marker-start="none" marker-mid="none" marker-end="none" stroke-miterlimit="4" stroke-dashoffset="0" id="path3244" d="m20.012451,157.499786c0,0 5.631531,35.737 3.586578,55.382507c-0.784241,7.534119 -3.806824,24.897644 -3.806824,24.897644l6.344696,0.220337c0,0 2.392792,-29.15802 2.070023,-43.045593c-0.20816,-8.955933 -8.194473,-37.454895 -8.194473,-37.454895z"/>
   <path fill="url(#linearGradient3469)" fill-rule="nonzero" stroke-width="2" stroke-linecap="round" stroke-linejoin="bevel" marker-start="none" marker-mid="none" marker-end="none" stroke-miterlimit="4" stroke-dashoffset="0" id="path3290" d="m10.434341,127.122925l-3.629135,77.875336l0.519318,32.989624l-4.375549,0.01239l3.052383,-79.881287l4.432983,-30.996063z"/>
   <path fill="url(#linearGradient3466)" fill-rule="nonzero" stroke-width="2" stroke-linecap="round" stroke-linejoin="bevel" marker-start="none" marker-mid="none" marker-end="none" stroke-miterlimit="4" stroke-dashoffset="0" d="m16.360962,159.895721c0,0 -8.726807,32.557251 -8.485214,48.736023c0.132217,8.854858 3.318039,29.110901 3.318039,29.110901l-5.53006,0.257629c0,0 -2.085571,-34.092285 -1.804245,-50.330017c0.181427,-10.471497 12.50148,-27.774536 12.50148,-27.774536z" id="path3248"/>
   <path fill="url(#linearGradient3463)" fill-rule="nonzero" stroke-width="2" stroke-linecap="round" stroke-linejoin="bevel" marker-start="none" marker-mid="none" marker-end="none" stroke-miterlimit="4" stroke-dashoffset="0" d="m17.56282,137.212402l-3.568207,0.308899l2.3414,59.764679l-3.214279,40.357178l5.357147,0.357117l1.747818,-69.773621l-4.994339,-28.185822l2.33046,-2.82843z" id="path3266"/>
   <path fill="url(#linearGradient3460)" fill-rule="nonzero" stroke-width="2" stroke-linecap="round" stroke-linejoin="bevel" marker-start="none" marker-mid="none" marker-end="none" stroke-miterlimit="4" stroke-dashoffset="0" id="path3262" d="m33.388641,156.107635c0,0 -12.480118,36.345337 -12.267471,52.524109c0.116394,8.854858 2.920761,29.110962 2.920761,29.110962l-4.86792,0.257568c0,0 -1.835846,-34.092285 -1.588211,-50.330017c0.159714,-10.471497 15.802841,-31.562622 15.802841,-31.562622z"/>
   <path fill="url(#linearGradient3457)" fill-rule="nonzero" stroke-width="2" stroke-linecap="round" stroke-linejoin="bevel" marker-start="none" marker-mid="none" marker-end="none" stroke-miterlimit="4" stroke-dashoffset="0" d="m5.832031,94.786011l-3.571426,102.499969l3.214279,40.357178l-5.357147,0.357117l-2.505432,-98.057892l8.219727,-45.156372z" id="rect2455"/>
   <path fill="url(#linearGradient3454)" fill-rule="nonzero" stroke-width="2" stroke-linecap="round" stroke-linejoin="bevel" marker-start="none" marker-mid="none" marker-end="none" stroke-miterlimit="4" stroke-dashoffset="0" id="path3236" d="m26.149124,123.070282l4.329041,74.215698l-3.214294,40.357178l5.357147,0.357117l1.747818,-69.773621l-8.219711,-45.156372z"/>
   <path fill="url(#linearGradient3451)" fill-rule="nonzero" stroke-width="2" stroke-linecap="round" stroke-linejoin="bevel" marker-start="none" marker-mid="none" marker-end="none" stroke-miterlimit="4" stroke-dashoffset="0" d="m5.996567,163.813202c0,0 6.919464,35.231934 6.642288,49.069092c-0.151703,7.573303 -3.806824,24.897644 -3.806824,24.897644l6.344696,0.220337c0,0 2.392792,-29.15802 2.070023,-43.045593c-0.208145,-8.955933 -11.250183,-31.141479 -11.250183,-31.141479z" id="path3240"/>
   <path fill="url(#linearGradient3448)" fill-rule="nonzero" stroke-width="2" stroke-linecap="round" stroke-linejoin="bevel" marker-start="none" marker-mid="none" marker-end="none" stroke-miterlimit="4" stroke-dashoffset="0" id="path3314" d="m15.542511,163.813202c0,0 6.919464,35.231934 6.642288,49.069092c-0.151703,7.573303 -3.806824,24.897644 -3.806824,24.897644l6.344696,0.220337c0,0 2.392792,-29.15802 2.070023,-43.045593c-0.20816,-8.955933 -11.250183,-31.141479 -11.250183,-31.141479z"/>
   <path fill="url(#linearGradient3414)" fill-rule="nonzero" stroke-width="2" stroke-linecap="round" stroke-linejoin="bevel" marker-start="none" marker-mid="none" marker-end="none" stroke-miterlimit="4" stroke-dashoffset="0" d="m49.288757,172.298492c0,0 -5.808456,26.746643 -6.085632,40.583801c-0.151703,7.573303 -3.806824,24.897644 -3.806824,24.897644l6.344696,0.220337c0,0 2.392792,-29.15802 2.070023,-43.045593c-0.208145,-8.955933 1.477737,-22.656189 1.477737,-22.656189z" id="path3339"/>
   <path fill="url(#linearGradient3411)" fill-rule="nonzero" stroke-width="2" stroke-linecap="round" stroke-linejoin="bevel" marker-start="none" marker-mid="none" marker-end="none" stroke-miterlimit="4" stroke-dashoffset="0" d="m52.904541,147.521362c0,0 3.777054,33.59549 3.535461,53.800934c-0.132217,11.058777 -3.318039,36.356262 -3.318039,36.356262l5.53006,0.321716c0,0 2.085571,-42.577393 1.804245,-62.856445c-0.181427,-13.077698 -7.551727,-27.622467 -7.551727,-27.622467z" id="path3341"/>
   <path fill="url(#linearGradient3408)" fill-rule="nonzero" stroke-width="2" stroke-linecap="round" stroke-linejoin="bevel" marker-start="none" marker-mid="none" marker-end="none" stroke-miterlimit="4" stroke-dashoffset="0" d="m44.851608,167.045746c0,0 5.454742,26.19104 3.409805,45.836548c-0.784241,7.534119 -3.806824,24.897644 -3.806824,24.897644l6.344681,0.220337c0,0 2.392792,-29.15802 2.070023,-43.045593c-0.208145,-8.955933 -8.017685,-27.908936 -8.017685,-27.908936z" id="path3343"/>
   <path fill="url(#linearGradient3405)" fill-rule="nonzero" stroke-width="2" stroke-linecap="round" stroke-linejoin="bevel" marker-start="none" marker-mid="none" marker-end="none" stroke-miterlimit="4" stroke-dashoffset="0" d="m35.946594,127.122925l-3.629135,77.875336l0.519318,32.989624l-4.375549,0.01239l3.052383,-79.881287l4.432983,-30.996063z" id="path3345"/>
   <path fill="url(#linearGradient3402)" fill-rule="nonzero" stroke-width="2" stroke-linecap="round" stroke-linejoin="bevel" marker-start="none" marker-mid="none" marker-end="none" stroke-miterlimit="4" stroke-dashoffset="0" id="path3347" d="m44.823486,159.895721c0,0 -8.726807,32.557251 -8.485214,48.736023c0.132217,8.854858 3.318039,29.110901 3.318039,29.110901l-5.53006,0.257629c0,0 -2.085571,-34.092285 -1.804245,-50.330017c0.181427,-10.471497 12.50148,-27.774536 12.50148,-27.774536z"/>
   <path fill="url(#linearGradient3399)" fill-rule="nonzero" stroke-width="2" stroke-linecap="round" stroke-linejoin="bevel" marker-start="none" marker-mid="none" marker-end="none" stroke-miterlimit="4" stroke-dashoffset="0" id="path3349" d="m51.179718,137.389191l2.972534,0.132111l2.3414,59.764679l-3.214279,40.357178l5.357147,0.357117l1.747818,-69.773621l-5.171112,-32.428436l-4.033508,1.590973z"/>
   <path fill="url(#linearGradient3396)" fill-rule="nonzero" stroke-width="2" stroke-linecap="round" stroke-linejoin="bevel" marker-start="none" marker-mid="none" marker-end="none" stroke-miterlimit="4" stroke-dashoffset="0" d="m60.339844,156.107635c0,0 -12.480133,36.345337 -12.267471,52.524109c0.116394,8.854858 2.920761,29.110962 2.920761,29.110962l-4.86792,0.257568c0,0 -1.835846,-34.092285 -1.588211,-50.330017c0.159698,-10.471497 15.802841,-31.562622 15.802841,-31.562622z" id="path3351"/>
   <path fill="url(#linearGradient3393)" fill-rule="nonzero" stroke-width="2" stroke-linecap="round" stroke-linejoin="bevel" marker-start="none" marker-mid="none" marker-end="none" stroke-miterlimit="4" stroke-dashoffset="0" id="path3353" d="m33.935822,107.16037l3.571426,93.643555l-3.214294,36.870056l5.357147,0.326294l2.505432,-89.585236l-8.219711,-41.254669z"/>
   <path fill="url(#linearGradient3390)" fill-rule="nonzero" stroke-width="2" stroke-linecap="round" stroke-linejoin="bevel" marker-start="none" marker-mid="none" marker-end="none" stroke-miterlimit="4" stroke-dashoffset="0" d="m41.764984,123.070282l4.329041,74.215698l-3.214294,40.357178l5.357147,0.357117l1.747818,-69.773621l-8.219711,-45.156372z" id="path3355"/>
   <path fill="url(#linearGradient3387)" fill-rule="nonzero" stroke-width="2" stroke-linecap="round" stroke-linejoin="bevel" marker-start="none" marker-mid="none" marker-end="none" stroke-miterlimit="4" stroke-dashoffset="0" id="path3357" d="m46.947037,163.813202c0,0 6.919464,35.231934 6.642288,49.069092c-0.151703,7.573303 -3.806824,24.897644 -3.806824,24.897644l6.344696,0.220337c0,0 2.392792,-29.15802 2.070023,-43.045593c-0.208145,-8.955933 -11.250183,-31.141479 -11.250183,-31.141479z"/>
   <path fill="#4d9805" fill-rule="nonzero" stroke-width="2" stroke-linecap="round" stroke-linejoin="bevel" marker-start="none" marker-mid="none" marker-end="none" stroke-miterlimit="4" stroke-dashoffset="0" d="m49.892044,163.813202c0,0 6.919464,35.231934 6.642288,49.069092c-0.151703,7.573303 -3.806824,24.897644 -3.806824,24.897644l6.344696,0.220337c0,0 2.392776,-29.15802 2.070007,-43.045593c-0.208145,-8.955933 -11.250168,-31.141479 -11.250168,-31.141479z" id="path3359"/>
   <path fill="url(#linearGradient3740)" fill-rule="nonzero" stroke-width="2" stroke-linecap="round" stroke-linejoin="bevel" marker-start="none" marker-mid="none" marker-end="none" stroke-miterlimit="4" stroke-dashoffset="0" d="m73.302628,172.298492c0,0 5.808456,26.746643 6.085632,40.583801c0.151703,7.573303 3.806824,24.897644 3.806824,24.897644l-6.344696,0.220337c0,0 -2.392792,-29.15802 -2.070023,-43.045593c0.208145,-8.955933 -1.477737,-22.656189 -1.477737,-22.656189z" id="path3509"/>
   <path fill="url(#linearGradient3737)" fill-rule="nonzero" stroke-width="2" stroke-linecap="round" stroke-linejoin="bevel" marker-start="none" marker-mid="none" marker-end="none" stroke-miterlimit="4" stroke-dashoffset="0" d="m99.212753,147.521362c0,0 -3.777069,33.59549 -3.535477,53.800934c0.132217,11.058777 3.318039,36.356262 3.318039,36.356262l-5.53006,0.321716c0,0 -2.085571,-42.577393 -1.804245,-62.856445c0.181427,-13.077698 7.551743,-27.622467 7.551743,-27.622467z" id="path3511"/>
   <path fill="url(#linearGradient3734)" fill-rule="nonzero" stroke-width="2" stroke-linecap="round" stroke-linejoin="bevel" marker-start="none" marker-mid="none" marker-end="none" stroke-miterlimit="4" stroke-dashoffset="0" d="m67.772034,157.499786c0,0 -5.631531,35.737 -3.586594,55.382507c0.784241,7.534119 3.806824,24.897644 3.806824,24.897644l-6.344681,0.220337c0,0 -2.392792,-29.15802 -2.070023,-43.045593c0.208145,-8.955933 8.194473,-37.454895 8.194473,-37.454895z" id="path3513"/>
   <path fill="url(#linearGradient3731)" fill-rule="nonzero" stroke-width="2" stroke-linecap="round" stroke-linejoin="bevel" marker-start="none" marker-mid="none" marker-end="none" stroke-miterlimit="4" stroke-dashoffset="0" d="m77.350143,127.122925l3.62912,77.875336l-0.519318,32.989624l4.375549,0.01239l-3.052383,-79.881287l-4.432968,-30.996063z" id="path3515"/>
   <path fill="url(#linearGradient3728)" fill-rule="nonzero" stroke-width="2" stroke-linecap="round" stroke-linejoin="bevel" marker-start="none" marker-mid="none" marker-end="none" stroke-miterlimit="4" stroke-dashoffset="0" id="path3517" d="m71.423508,159.895721c0,0 8.726807,32.557251 8.485214,48.736023c-0.132217,8.854858 -3.318039,29.110901 -3.318039,29.110901l5.53006,0.257629c0,0 2.085571,-34.092285 1.804245,-50.330017c-0.181427,-10.471497 -12.50148,-27.774536 -12.50148,-27.774536z"/>
   <path fill="url(#linearGradient3725)" fill-rule="nonzero" stroke-width="2" stroke-linecap="round" stroke-linejoin="bevel" marker-start="none" marker-mid="none" marker-end="none" stroke-miterlimit="4" stroke-dashoffset="0" id="path3519" d="m70.221664,137.212402l3.568192,0.308899l-2.3414,59.764679l3.214294,40.357178l-5.357147,0.357117l-1.747818,-69.773621l4.994324,-28.185822l-2.330444,-2.82843z"/>
   <path fill="url(#linearGradient3722)" fill-rule="nonzero" stroke-width="2" stroke-linecap="round" stroke-linejoin="bevel" marker-start="none" marker-mid="none" marker-end="none" stroke-miterlimit="4" stroke-dashoffset="0" d="m87.895828,156.107635c0,0 12.480133,36.345337 12.267471,52.524109c-0.116394,8.854858 -2.920761,29.110962 -2.920761,29.110962l4.86792,0.257568c0,0 1.835846,-34.092285 1.588211,-50.330017c-0.159698,-10.471497 -15.802841,-31.562622 -15.802841,-31.562622z" id="path3521"/>
   <path fill="url(#linearGradient3719)" fill-rule="nonzero" stroke-width="2" stroke-linecap="round" stroke-linejoin="bevel" marker-start="none" marker-mid="none" marker-end="none" stroke-miterlimit="4" stroke-dashoffset="0" id="path3523" d="m67.452454,94.786011l3.571426,102.499969l-3.214294,40.357178l5.357147,0.357117l2.505432,-98.057892l-8.219711,-45.156372z"/>
   <path fill="url(#linearGradient3716)" fill-rule="nonzero" stroke-width="2" stroke-linecap="round" stroke-linejoin="bevel" marker-start="none" marker-mid="none" marker-end="none" stroke-miterlimit="4" stroke-dashoffset="0" d="m110.135361,123.070282l-4.329041,74.215698l3.214294,40.357178l-5.357162,0.357117l-1.747818,-69.773621l8.219727,-45.156372z" id="path3525"/>
   <path fill="url(#linearGradient3713)" fill-rule="nonzero" stroke-width="2" stroke-linecap="round" stroke-linejoin="bevel" marker-start="none" marker-mid="none" marker-end="none" stroke-miterlimit="4" stroke-dashoffset="0" id="path3527" d="m81.787903,163.813202c0,0 -6.919464,35.231934 -6.642288,49.069092c0.151703,7.573303 3.806824,24.897644 3.806824,24.897644l-6.344696,0.220337c0,0 -2.392792,-29.15802 -2.070007,-43.045593c0.208145,-8.955933 11.250168,-31.141479 11.250168,-31.141479z"/>
   <path fill="url(#linearGradient3710)" fill-rule="nonzero" stroke-width="2" stroke-linecap="round" stroke-linejoin="bevel" marker-start="none" marker-mid="none" marker-end="none" stroke-miterlimit="4" stroke-dashoffset="0" d="m72.241974,163.813202c0,0 -6.919479,35.231934 -6.642303,49.069092c0.151703,7.573303 3.806824,24.897644 3.806824,24.897644l-6.344681,0.220337c0,0 -2.392792,-29.15802 -2.070023,-43.045593c0.208145,-8.955933 11.250183,-31.141479 11.250183,-31.141479z" id="path3529"/>
   <path fill="url(#linearGradient3707)" fill-rule="nonzero" stroke-width="2" stroke-linecap="round" stroke-linejoin="bevel" marker-start="none" marker-mid="none" marker-end="none" stroke-miterlimit="4" stroke-dashoffset="0" id="path3531" d="m86.995712,172.298492c0,0 5.808456,26.746643 6.085632,40.583801c0.151703,7.573303 3.806824,24.897644 3.806824,24.897644l-6.344696,0.220337c0,0 -2.392792,-29.15802 -2.070007,-43.045593c0.208145,-8.955933 -1.477753,-22.656189 -1.477753,-22.656189z"/>
   <path fill="url(#linearGradient3704)" fill-rule="nonzero" stroke-width="2" stroke-linecap="round" stroke-linejoin="bevel" marker-start="none" marker-mid="none" marker-end="none" stroke-miterlimit="4" stroke-dashoffset="0" id="path3533" d="m83.379944,147.521362c0,0 -3.777069,33.59549 -3.535477,53.800934c0.132217,11.058777 3.318039,36.356262 3.318039,36.356262l-5.53006,0.321716c0,0 -2.085571,-42.577393 -1.804245,-62.856445c0.181427,-13.077698 7.551743,-27.622467 7.551743,-27.622467z"/>
   <path fill="url(#linearGradient3701)" fill-rule="nonzero" stroke-width="2" stroke-linecap="round" stroke-linejoin="bevel" marker-start="none" marker-mid="none" marker-end="none" stroke-miterlimit="4" stroke-dashoffset="0" id="path3535" d="m91.432861,167.045746c0,0 -5.454742,26.19104 -3.40979,45.836548c0.784241,7.534119 3.806824,24.897644 3.806824,24.897644l-6.344696,0.220337c0,0 -2.392792,-29.15802 -2.070023,-43.045593c0.208145,-8.955933 8.017685,-27.908936 8.017685,-27.908936z"/>
   <path fill="url(#linearGradient3698)" fill-rule="nonzero" stroke-width="2" stroke-linecap="round" stroke-linejoin="bevel" marker-start="none" marker-mid="none" marker-end="none" stroke-miterlimit="4" stroke-dashoffset="0" id="path3537" d="m101.837891,127.122925l3.62912,77.875336l-0.519318,32.989624l4.375549,0.01239l-3.052368,-79.881287l-4.432983,-30.996063z"/>
   <path fill="url(#linearGradient3692)" fill-rule="nonzero" stroke-width="2" stroke-linecap="round" stroke-linejoin="bevel" marker-start="none" marker-mid="none" marker-end="none" stroke-miterlimit="4" stroke-dashoffset="0" d="m85.104752,137.389191l-2.972534,0.132111l-2.3414,59.764679l3.214294,40.357178l-5.357147,0.357117l-1.747833,-69.773621l5.171112,-32.428436l4.033508,1.590973z" id="path3541"/>
   <path fill="url(#linearGradient3689)" fill-rule="nonzero" stroke-width="2" stroke-linecap="round" stroke-linejoin="bevel" marker-start="none" marker-mid="none" marker-end="none" stroke-miterlimit="4" stroke-dashoffset="0" id="path3543" d="m75.944626,156.107635c0,0 12.480133,36.345337 12.267471,52.524109c-0.116394,8.854858 -2.920761,29.110962 -2.920761,29.110962l4.86792,0.257568c0,0 1.835846,-34.092285 1.588211,-50.330017c-0.159698,-10.471497 -15.802841,-31.562622 -15.802841,-31.562622z"/>
   <path fill="url(#linearGradient3686)" fill-rule="nonzero" stroke-width="2" stroke-linecap="round" stroke-linejoin="bevel" marker-start="none" marker-mid="none" marker-end="none" stroke-miterlimit="4" stroke-dashoffset="0" d="m102.348663,107.16037l-3.571442,93.643555l3.214294,36.870056l-5.357147,0.326294l-2.505432,-89.585236l8.219727,-41.254669z" id="path3545"/>
   <path fill="url(#linearGradient3683)" fill-rule="nonzero" stroke-width="2" stroke-linecap="round" stroke-linejoin="bevel" marker-start="none" marker-mid="none" marker-end="none" stroke-miterlimit="4" stroke-dashoffset="0" id="path3547" d="m94.519501,123.070282l-4.329041,74.215698l3.214294,40.357178l-5.357162,0.357117l-1.747818,-69.773621l8.219727,-45.156372z"/>
  </g>
  <g id="g3866" transform="matrix(-1, 0, 0, 1, 361.333, -362.931)">
   <path fill="url(#linearGradient3952)" fill-rule="nonzero" stroke-width="2" stroke-linecap="round" stroke-linejoin="bevel" marker-start="none" marker-mid="none" marker-end="none" stroke-miterlimit="4" stroke-dashoffset="0" id="path3868" d="m192.24231,515.544067c-1.676697,2.747498 -6.882339,21.475647 -8.736069,21.15625c-1.871246,0.095093 -2.037369,-4.236694 -2.258301,-8.25c-0.187531,-3.406006 -0.40979,-6.586548 -1.782883,-6.59375c-1.703156,-0.008972 -8.621124,11.135254 -11.677826,10.375c-0.90654,-0.225464 -0.08139,-6.675354 -0.416,-8.5625l-3.71431,18.53125l-6.745209,-16.15625l-6.032059,7.09375l-4.368027,-4.125l0,70.375l48.93985,0l8.5578,0l48.93985,0l0,-65.34375l-4.368027,3.84375l-6.032059,-6.59375l-6.745209,15l-3.71431,-17.21875c-0.334595,1.752075 0.49054,7.759399 -0.416,7.96875c-3.056686,0.70575 -9.97467,-9.633301 -11.677826,-9.625c-1.373093,0.006714 -1.595352,2.931519 -1.782883,6.09375c-0.220932,3.726013 -0.387054,7.775757 -2.258301,7.6875c-1.853729,0.296509 -7.059372,-17.105408 -8.736069,-19.65625c-1.620087,2.148438 1.504303,7.101563 -1.0103,9.25l-2.347443,-2.09375l-4.635483,-8.875l-5.97261,5.6875c-2.514603,-2.314087 0.609802,-7.654724 -1.0103,-9.96875z"/>
   <path fill="url(#linearGradient3954)" fill-rule="nonzero" stroke-width="2" stroke-linecap="round" stroke-linejoin="bevel" marker-start="none" marker-mid="none" marker-end="none" stroke-miterlimit="4" stroke-dashoffset="0" d="m159.067612,535.229492c0,0 -5.808441,26.746643 -6.085617,40.583801c-0.151703,7.573303 -3.806824,24.897644 -3.806824,24.897644l6.344681,0.220337c0,0 2.392792,-29.15802 2.070023,-43.045593c-0.208145,-8.955933 1.477737,-22.656189 1.477737,-22.656189z" id="path3870"/>
   <path fill="url(#linearGradient3956)" fill-rule="nonzero" stroke-width="2" stroke-linecap="round" stroke-linejoin="bevel" marker-start="none" marker-mid="none" marker-end="none" stroke-miterlimit="4" stroke-dashoffset="0" d="m167.157501,510.452362c0,0 3.777054,33.59549 3.535461,53.800934c-0.132217,11.058777 -3.318039,36.356262 -3.318039,36.356262l5.53006,0.321716c0,0 2.085571,-42.577393 1.804245,-62.856445c-0.181427,-13.077698 -7.551727,-27.622467 -7.551727,-27.622467z" id="path3872"/>
   <path fill="url(#linearGradient3958)" fill-rule="nonzero" stroke-width="2" stroke-linecap="round" stroke-linejoin="bevel" marker-start="none" marker-mid="none" marker-end="none" stroke-miterlimit="4" stroke-dashoffset="0" d="m164.598221,520.430786c0,0 5.631531,35.737 3.586578,55.382507c-0.784241,7.534119 -3.806824,24.897644 -3.806824,24.897644l6.344696,0.220337c0,0 2.392792,-29.15802 2.070023,-43.045593c-0.20816,-8.955933 -8.194473,-37.454895 -8.194473,-37.454895z" id="path3874"/>
   <path fill="url(#linearGradient3960)" fill-rule="nonzero" stroke-width="2" stroke-linecap="round" stroke-linejoin="bevel" marker-start="none" marker-mid="none" marker-end="none" stroke-miterlimit="4" stroke-dashoffset="0" d="m155.020111,490.053925l-3.629135,77.875336l0.519318,32.989624l-4.375549,0.01239l3.052383,-79.881287l4.432983,-30.996063z" id="path3876"/>
   <path fill="url(#linearGradient3962)" fill-rule="nonzero" stroke-width="2" stroke-linecap="round" stroke-linejoin="bevel" marker-start="none" marker-mid="none" marker-end="none" stroke-miterlimit="4" stroke-dashoffset="0" id="path3878" d="m160.946732,522.826721c0,0 -8.726807,32.557251 -8.485214,48.736023c0.132217,8.854858 3.318039,29.110901 3.318039,29.110901l-5.53006,0.257629c0,0 -2.085571,-34.092285 -1.804245,-50.330017c0.181427,-10.471497 12.50148,-27.774536 12.50148,-27.774536z"/>
   <path fill="url(#linearGradient3964)" fill-rule="nonzero" stroke-width="2" stroke-linecap="round" stroke-linejoin="bevel" marker-start="none" marker-mid="none" marker-end="none" stroke-miterlimit="4" stroke-dashoffset="0" id="path3880" d="m162.14859,500.143402l-3.568207,0.308899l2.3414,59.764679l-3.214279,40.357178l5.357147,0.357117l1.747818,-69.773621l-4.994339,-28.185822l2.33046,-2.82843z"/>
   <path fill="url(#linearGradient3966)" fill-rule="nonzero" stroke-width="2" stroke-linecap="round" stroke-linejoin="bevel" marker-start="none" marker-mid="none" marker-end="none" stroke-miterlimit="4" stroke-dashoffset="0" d="m177.974411,519.038635c0,0 -12.480118,36.345337 -12.267471,52.524109c0.116394,8.854858 2.920761,29.110962 2.920761,29.110962l-4.86792,0.257568c0,0 -1.835846,-34.092285 -1.588211,-50.330017c0.159714,-10.471497 15.802841,-31.562622 15.802841,-31.562622z" id="path3882"/>
   <path fill="url(#linearGradient3968)" fill-rule="nonzero" stroke-width="2" stroke-linecap="round" stroke-linejoin="bevel" marker-start="none" marker-mid="none" marker-end="none" stroke-miterlimit="4" stroke-dashoffset="0" id="path3884" d="m150.417801,457.71701l-3.571426,102.499969l3.214279,40.357178l-5.357147,0.357117l-2.505432,-98.057892l8.219727,-45.156372z"/>
   <path fill="url(#linearGradient3970)" fill-rule="nonzero" stroke-width="2" stroke-linecap="round" stroke-linejoin="bevel" marker-start="none" marker-mid="none" marker-end="none" stroke-miterlimit="4" stroke-dashoffset="0" d="m170.734894,486.001282l4.329041,74.215698l-3.214294,40.357178l5.357147,0.357117l1.747818,-69.773621l-8.219711,-45.156372z" id="path3886"/>
   <path fill="url(#linearGradient3972)" fill-rule="nonzero" stroke-width="2" stroke-linecap="round" stroke-linejoin="bevel" marker-start="none" marker-mid="none" marker-end="none" stroke-miterlimit="4" stroke-dashoffset="0" id="path3888" d="m150.582336,526.744202c0,0 6.919464,35.231934 6.642288,49.069092c-0.151703,7.573303 -3.806824,24.897644 -3.806824,24.897644l6.344696,0.220337c0,0 2.392792,-29.15802 2.070023,-43.045593c-0.208145,-8.955933 -11.250183,-31.141479 -11.250183,-31.141479z"/>
   <path fill="url(#linearGradient3974)" fill-rule="nonzero" stroke-width="2" stroke-linecap="round" stroke-linejoin="bevel" marker-start="none" marker-mid="none" marker-end="none" stroke-miterlimit="4" stroke-dashoffset="0" d="m160.128281,526.744202c0,0 6.919464,35.231934 6.642288,49.069092c-0.151703,7.573303 -3.806824,24.897644 -3.806824,24.897644l6.344696,0.220337c0,0 2.392792,-29.15802 2.070023,-43.045593c-0.20816,-8.955933 -11.250183,-31.141479 -11.250183,-31.141479z" id="path3890"/>
   <path fill="url(#linearGradient3976)" fill-rule="nonzero" stroke-width="2" stroke-linecap="round" stroke-linejoin="bevel" marker-start="none" marker-mid="none" marker-end="none" stroke-miterlimit="4" stroke-dashoffset="0" id="path3892" d="m193.874527,535.229492c0,0 -5.808456,26.746643 -6.085632,40.583801c-0.151703,7.573303 -3.806824,24.897644 -3.806824,24.897644l6.344696,0.220337c0,0 2.392792,-29.15802 2.070023,-43.045593c-0.208145,-8.955933 1.477737,-22.656189 1.477737,-22.656189z"/>
   <path fill="url(#linearGradient3978)" fill-rule="nonzero" stroke-width="2" stroke-linecap="round" stroke-linejoin="bevel" marker-start="none" marker-mid="none" marker-end="none" stroke-miterlimit="4" stroke-dashoffset="0" id="path3894" d="m197.490311,510.452362c0,0 3.777054,33.59549 3.535461,53.800934c-0.132217,11.058777 -3.318039,36.356262 -3.318039,36.356262l5.53006,0.321716c0,0 2.085571,-42.577393 1.804245,-62.856445c-0.181427,-13.077698 -7.551727,-27.622467 -7.551727,-27.622467z"/>
   <path fill="url(#linearGradient3980)" fill-rule="nonzero" stroke-width="2" stroke-linecap="round" stroke-linejoin="bevel" marker-start="none" marker-mid="none" marker-end="none" stroke-miterlimit="4" stroke-dashoffset="0" id="path3896" d="m189.437378,529.976746c0,0 5.454742,26.19104 3.409805,45.836548c-0.784241,7.534119 -3.806824,24.897644 -3.806824,24.897644l6.344681,0.220337c0,0 2.392792,-29.15802 2.070023,-43.045593c-0.208145,-8.955933 -8.017685,-27.908936 -8.017685,-27.908936z"/>
   <path fill="url(#linearGradient3982)" fill-rule="nonzero" stroke-width="2" stroke-linecap="round" stroke-linejoin="bevel" marker-start="none" marker-mid="none" marker-end="none" stroke-miterlimit="4" stroke-dashoffset="0" id="path3898" d="m180.532364,490.053925l-3.629135,77.875336l0.519318,32.989624l-4.375549,0.01239l3.052383,-79.881287l4.432983,-30.996063z"/>
   <path fill="url(#linearGradient3984)" fill-rule="nonzero" stroke-width="2" stroke-linecap="round" stroke-linejoin="bevel" marker-start="none" marker-mid="none" marker-end="none" stroke-miterlimit="4" stroke-dashoffset="0" d="m189.409256,522.826721c0,0 -8.726807,32.557251 -8.485214,48.736023c0.132217,8.854858 3.318039,29.110901 3.318039,29.110901l-5.53006,0.257629c0,0 -2.085571,-34.092285 -1.804245,-50.330017c0.181427,-10.471497 12.50148,-27.774536 12.50148,-27.774536z" id="path3900"/>
   <path fill="url(#linearGradient3986)" fill-rule="nonzero" stroke-width="2" stroke-linecap="round" stroke-linejoin="bevel" marker-start="none" marker-mid="none" marker-end="none" stroke-miterlimit="4" stroke-dashoffset="0" d="m195.765488,500.32019l2.972534,0.132111l2.3414,59.764679l-3.214279,40.357178l5.357147,0.357117l1.747818,-69.773621l-5.171112,-32.428436l-4.033508,1.590973z" id="path3902"/>
   <path fill="url(#linearGradient3988)" fill-rule="nonzero" stroke-width="2" stroke-linecap="round" stroke-linejoin="bevel" marker-start="none" marker-mid="none" marker-end="none" stroke-miterlimit="4" stroke-dashoffset="0" id="path3904" d="m204.925613,519.038635c0,0 -12.480133,36.345337 -12.267471,52.524109c0.116394,8.854858 2.920761,29.110962 2.920761,29.110962l-4.86792,0.257568c0,0 -1.835846,-34.092285 -1.588211,-50.330017c0.159698,-10.471497 15.802841,-31.562622 15.802841,-31.562622z"/>
   <path fill="url(#linearGradient3990)" fill-rule="nonzero" stroke-width="2" stroke-linecap="round" stroke-linejoin="bevel" marker-start="none" marker-mid="none" marker-end="none" stroke-miterlimit="4" stroke-dashoffset="0" d="m178.521591,470.09137l3.571426,93.643555l-3.214294,36.870056l5.357147,0.326294l2.505432,-89.585236l-8.219711,-41.254669z" id="path3906"/>
   <path fill="url(#linearGradient3992)" fill-rule="nonzero" stroke-width="2" stroke-linecap="round" stroke-linejoin="bevel" marker-start="none" marker-mid="none" marker-end="none" stroke-miterlimit="4" stroke-dashoffset="0" id="path3908" d="m186.350754,486.001282l4.329041,74.215698l-3.214294,40.357178l5.357147,0.357117l1.747818,-69.773621l-8.219711,-45.156372z"/>
   <path fill="url(#linearGradient3994)" fill-rule="nonzero" stroke-width="2" stroke-linecap="round" stroke-linejoin="bevel" marker-start="none" marker-mid="none" marker-end="none" stroke-miterlimit="4" stroke-dashoffset="0" d="m191.532806,526.744202c0,0 6.919464,35.231934 6.642288,49.069092c-0.151703,7.573303 -3.806824,24.897644 -3.806824,24.897644l6.344696,0.220337c0,0 2.392792,-29.15802 2.070023,-43.045593c-0.208145,-8.955933 -11.250183,-31.141479 -11.250183,-31.141479z" id="path3910"/>
   <path fill="#4d9805" fill-rule="nonzero" stroke-width="2" stroke-linecap="round" stroke-linejoin="bevel" marker-start="none" marker-mid="none" marker-end="none" stroke-miterlimit="4" stroke-dashoffset="0" id="path3912" d="m194.477814,526.744202c0,0 6.919464,35.231934 6.642288,49.069092c-0.151703,7.573303 -3.806824,24.897644 -3.806824,24.897644l6.344696,0.220337c0,0 2.392776,-29.15802 2.070007,-43.045593c-0.208145,-8.955933 -11.250168,-31.141479 -11.250168,-31.141479z"/>
   <path fill="url(#linearGradient3996)" fill-rule="nonzero" stroke-width="2" stroke-linecap="round" stroke-linejoin="bevel" marker-start="none" marker-mid="none" marker-end="none" stroke-miterlimit="4" stroke-dashoffset="0" id="path3914" d="m217.888397,535.229492c0,0 5.808456,26.746643 6.085632,40.583801c0.151703,7.573303 3.806824,24.897644 3.806824,24.897644l-6.344696,0.220337c0,0 -2.392792,-29.15802 -2.070023,-43.045593c0.208145,-8.955933 -1.477737,-22.656189 -1.477737,-22.656189z"/>
   <path fill="url(#linearGradient3998)" fill-rule="nonzero" stroke-width="2" stroke-linecap="round" stroke-linejoin="bevel" marker-start="none" marker-mid="none" marker-end="none" stroke-miterlimit="4" stroke-dashoffset="0" id="path3916" d="m243.798523,510.452362c0,0 -3.777069,33.59549 -3.535477,53.800934c0.132217,11.058777 3.318039,36.356262 3.318039,36.356262l-5.53006,0.321716c0,0 -2.085571,-42.577393 -1.804245,-62.856445c0.181427,-13.077698 7.551743,-27.622467 7.551743,-27.622467z"/>
   <path fill="url(#linearGradient4000)" fill-rule="nonzero" stroke-width="2" stroke-linecap="round" stroke-linejoin="bevel" marker-start="none" marker-mid="none" marker-end="none" stroke-miterlimit="4" stroke-dashoffset="0" id="path3918" d="m212.357803,520.430786c0,0 -5.631531,35.737 -3.586594,55.382507c0.784241,7.534119 3.806824,24.897644 3.806824,24.897644l-6.344681,0.220337c0,0 -2.392792,-29.15802 -2.070023,-43.045593c0.208145,-8.955933 8.194473,-37.454895 8.194473,-37.454895z"/>
   <path fill="url(#linearGradient4002)" fill-rule="nonzero" stroke-width="2" stroke-linecap="round" stroke-linejoin="bevel" marker-start="none" marker-mid="none" marker-end="none" stroke-miterlimit="4" stroke-dashoffset="0" id="path3920" d="m221.935913,490.053925l3.62912,77.875336l-0.519318,32.989624l4.375549,0.01239l-3.052383,-79.881287l-4.432968,-30.996063z"/>
   <path fill="url(#linearGradient4004)" fill-rule="nonzero" stroke-width="2" stroke-linecap="round" stroke-linejoin="bevel" marker-start="none" marker-mid="none" marker-end="none" stroke-miterlimit="4" stroke-dashoffset="0" d="m216.009277,522.826721c0,0 8.726807,32.557251 8.485214,48.736023c-0.132217,8.854858 -3.318039,29.110901 -3.318039,29.110901l5.53006,0.257629c0,0 2.085571,-34.092285 1.804245,-50.330017c-0.181427,-10.471497 -12.50148,-27.774536 -12.50148,-27.774536z" id="path3922"/>
   <path fill="url(#linearGradient4006)" fill-rule="nonzero" stroke-width="2" stroke-linecap="round" stroke-linejoin="bevel" marker-start="none" marker-mid="none" marker-end="none" stroke-miterlimit="4" stroke-dashoffset="0" d="m214.807434,500.143402l3.568192,0.308899l-2.3414,59.764679l3.214294,40.357178l-5.357147,0.357117l-1.747818,-69.773621l4.994324,-28.185822l-2.330444,-2.82843z" id="path3924"/>
   <path fill="url(#linearGradient4008)" fill-rule="nonzero" stroke-width="2" stroke-linecap="round" stroke-linejoin="bevel" marker-start="none" marker-mid="none" marker-end="none" stroke-miterlimit="4" stroke-dashoffset="0" id="path3926" d="m232.481598,519.038635c0,0 12.480133,36.345337 12.267471,52.524109c-0.116394,8.854858 -2.920761,29.110962 -2.920761,29.110962l4.86792,0.257568c0,0 1.835846,-34.092285 1.588211,-50.330017c-0.159698,-10.471497 -15.802841,-31.562622 -15.802841,-31.562622z"/>
   <path fill="url(#linearGradient4010)" fill-rule="nonzero" stroke-width="2" stroke-linecap="round" stroke-linejoin="bevel" marker-start="none" marker-mid="none" marker-end="none" stroke-miterlimit="4" stroke-dashoffset="0" d="m212.038223,457.71701l3.571426,102.499969l-3.214294,40.357178l5.357147,0.357117l2.505432,-98.057892l-8.219711,-45.156372z" id="path3928"/>
   <path fill="url(#linearGradient4012)" fill-rule="nonzero" stroke-width="2" stroke-linecap="round" stroke-linejoin="bevel" marker-start="none" marker-mid="none" marker-end="none" stroke-miterlimit="4" stroke-dashoffset="0" id="path3930" d="m254.72113,486.001282l-4.329041,74.215698l3.214294,40.357178l-5.357162,0.357117l-1.747818,-69.773621l8.219727,-45.156372z"/>
   <path fill="url(#linearGradient4014)" fill-rule="nonzero" stroke-width="2" stroke-linecap="round" stroke-linejoin="bevel" marker-start="none" marker-mid="none" marker-end="none" stroke-miterlimit="4" stroke-dashoffset="0" d="m226.373672,526.744202c0,0 -6.919464,35.231934 -6.642288,49.069092c0.151703,7.573303 3.806824,24.897644 3.806824,24.897644l-6.344696,0.220337c0,0 -2.392792,-29.15802 -2.070007,-43.045593c0.208145,-8.955933 11.250168,-31.141479 11.250168,-31.141479z" id="path3932"/>
   <path fill="url(#linearGradient4016)" fill-rule="nonzero" stroke-width="2" stroke-linecap="round" stroke-linejoin="bevel" marker-start="none" marker-mid="none" marker-end="none" stroke-miterlimit="4" stroke-dashoffset="0" id="path3934" d="m216.827744,526.744202c0,0 -6.919479,35.231934 -6.642303,49.069092c0.151703,7.573303 3.806824,24.897644 3.806824,24.897644l-6.344681,0.220337c0,0 -2.392792,-29.15802 -2.070023,-43.045593c0.208145,-8.955933 11.250183,-31.141479 11.250183,-31.141479z"/>
   <path fill="url(#linearGradient4018)" fill-rule="nonzero" stroke-width="2" stroke-linecap="round" stroke-linejoin="bevel" marker-start="none" marker-mid="none" marker-end="none" stroke-miterlimit="4" stroke-dashoffset="0" d="m231.581482,535.229492c0,0 5.808456,26.746643 6.085632,40.583801c0.151703,7.573303 3.806824,24.897644 3.806824,24.897644l-6.344696,0.220337c0,0 -2.392792,-29.15802 -2.070007,-43.045593c0.208145,-8.955933 -1.477753,-22.656189 -1.477753,-22.656189z" id="path3936"/>
   <path fill="url(#linearGradient4020)" fill-rule="nonzero" stroke-width="2" stroke-linecap="round" stroke-linejoin="bevel" marker-start="none" marker-mid="none" marker-end="none" stroke-miterlimit="4" stroke-dashoffset="0" d="m227.965714,510.452362c0,0 -3.777069,33.59549 -3.535477,53.800934c0.132217,11.058777 3.318039,36.356262 3.318039,36.356262l-5.53006,0.321716c0,0 -2.085571,-42.577393 -1.804245,-62.856445c0.181427,-13.077698 7.551743,-27.622467 7.551743,-27.622467z" id="path3938"/>
   <path fill="url(#linearGradient4022)" fill-rule="nonzero" stroke-width="2" stroke-linecap="round" stroke-linejoin="bevel" marker-start="none" marker-mid="none" marker-end="none" stroke-miterlimit="4" stroke-dashoffset="0" d="m236.018631,529.976746c0,0 -5.454742,26.19104 -3.40979,45.836548c0.784241,7.534119 3.806824,24.897644 3.806824,24.897644l-6.344696,0.220337c0,0 -2.392792,-29.15802 -2.070023,-43.045593c0.208145,-8.955933 8.017685,-27.908936 8.017685,-27.908936z" id="path3940"/>
   <path fill="url(#linearGradient4024)" fill-rule="nonzero" stroke-width="2" stroke-linecap="round" stroke-linejoin="bevel" marker-start="none" marker-mid="none" marker-end="none" stroke-miterlimit="4" stroke-dashoffset="0" d="m246.42366,490.053925l3.62912,77.875336l-0.519318,32.989624l4.375549,0.01239l-3.052368,-79.881287l-4.432983,-30.996063z" id="path3942"/>
   <path fill="url(#linearGradient4026)" fill-rule="nonzero" stroke-width="2" stroke-linecap="round" stroke-linejoin="bevel" marker-start="none" marker-mid="none" marker-end="none" stroke-miterlimit="4" stroke-dashoffset="0" id="path3944" d="m229.690521,500.32019l-2.972534,0.132111l-2.3414,59.764679l3.214294,40.357178l-5.357147,0.357117l-1.747833,-69.773621l5.171112,-32.428436l4.033508,1.590973z"/>
   <path fill="url(#linearGradient4028)" fill-rule="nonzero" stroke-width="2" stroke-linecap="round" stroke-linejoin="bevel" marker-start="none" marker-mid="none" marker-end="none" stroke-miterlimit="4" stroke-dashoffset="0" d="m220.530396,519.038635c0,0 12.480133,36.345337 12.267471,52.524109c-0.116394,8.854858 -2.920761,29.110962 -2.920761,29.110962l4.86792,0.257568c0,0 1.835846,-34.092285 1.588211,-50.330017c-0.159698,-10.471497 -15.802841,-31.562622 -15.802841,-31.562622z" id="path3946"/>
   <path fill="url(#linearGradient4030)" fill-rule="nonzero" stroke-width="2" stroke-linecap="round" stroke-linejoin="bevel" marker-start="none" marker-mid="none" marker-end="none" stroke-miterlimit="4" stroke-dashoffset="0" id="path3948" d="m246.934433,470.09137l-3.571442,93.643555l3.214294,36.870056l-5.357147,0.326294l-2.505432,-89.585236l8.219727,-41.254669z"/>
   <path fill="url(#linearGradient4032)" fill-rule="nonzero" stroke-width="2" stroke-linecap="round" stroke-linejoin="bevel" marker-start="none" marker-mid="none" marker-end="none" stroke-miterlimit="4" stroke-dashoffset="0" d="m239.10527,486.001282l-4.329041,74.215698l3.214294,40.357178l-5.357162,0.357117l-1.747818,-69.773621l8.219727,-45.156372z" id="path3950"/>
  </g>
  <g id="g4202">
   <path fill="url(#linearGradient4288)" fill-rule="nonzero" stroke-width="2" stroke-linecap="round" stroke-linejoin="bevel" marker-start="none" marker-mid="none" marker-end="none" stroke-miterlimit="4" stroke-dashoffset="0" d="m263.156555,152.613068c-1.676697,2.747498 -6.882355,21.475647 -8.736084,21.15625c-1.871246,0.095093 -2.037369,-4.236694 -2.258301,-8.25c-0.187531,-3.406006 -0.40979,-6.586548 -1.782883,-6.59375c-1.703156,-0.008972 -8.621124,11.135254 -11.677826,10.375c-0.90654,-0.225464 -0.08139,-6.675354 -0.416,-8.5625l-3.71431,18.53125l-6.745209,-16.15625l-6.032059,7.09375l-4.368027,-4.125l0,70.375l48.939865,0l8.5578,0l48.939819,0l0,-65.34375l-4.368011,3.84375l-6.032074,-6.59375l-6.745178,15l-3.714325,-17.21875c-0.334595,1.752075 0.49054,7.759399 -0.415985,7.96875c-3.056702,0.70575 -9.97467,-9.633301 -11.677856,-9.625c-1.373077,0.006714 -1.595337,2.931519 -1.782867,6.09375c-0.220917,3.726013 -0.387054,7.775757 -2.258301,7.6875c-1.853729,0.296509 -7.059357,-17.105408 -8.736053,-19.65625c-1.620117,2.148438 1.504272,7.101563 -1.010315,9.25l-2.347443,-2.09375l-4.635468,-8.875l-5.972626,5.6875c-2.514618,-2.314087 0.609802,-7.654724 -1.010284,-9.96875z" id="path4204"/>
   <path fill="url(#linearGradient4290)" fill-rule="nonzero" stroke-width="2" stroke-linecap="round" stroke-linejoin="bevel" marker-start="none" marker-mid="none" marker-end="none" stroke-miterlimit="4" stroke-dashoffset="0" id="path4206" d="m229.981842,172.298492c0,0 -5.808441,26.746643 -6.085617,40.583801c-0.151703,7.573303 -3.806824,24.897644 -3.806824,24.897644l6.344681,0.220337c0,0 2.392792,-29.15802 2.070023,-43.045593c-0.208145,-8.955933 1.477737,-22.656189 1.477737,-22.656189z"/>
   <path fill="url(#linearGradient4292)" fill-rule="nonzero" stroke-width="2" stroke-linecap="round" stroke-linejoin="bevel" marker-start="none" marker-mid="none" marker-end="none" stroke-miterlimit="4" stroke-dashoffset="0" id="path4208" d="m238.071732,147.521362c0,0 3.777054,33.59549 3.535461,53.800934c-0.132217,11.058777 -3.318039,36.356262 -3.318039,36.356262l5.53006,0.321716c0,0 2.085571,-42.577393 1.804245,-62.856445c-0.181427,-13.077698 -7.551727,-27.622467 -7.551727,-27.622467z"/>
   <path fill="url(#linearGradient4294)" fill-rule="nonzero" stroke-width="2" stroke-linecap="round" stroke-linejoin="bevel" marker-start="none" marker-mid="none" marker-end="none" stroke-miterlimit="4" stroke-dashoffset="0" id="path4210" d="m235.512451,157.499786c0,0 5.631531,35.737 3.586578,55.382507c-0.784241,7.534119 -3.806824,24.897644 -3.806824,24.897644l6.344696,0.220337c0,0 2.392792,-29.15802 2.070023,-43.045593c-0.20816,-8.955933 -8.194473,-37.454895 -8.194473,-37.454895z"/>
   <path fill="url(#linearGradient4296)" fill-rule="nonzero" stroke-width="2" stroke-linecap="round" stroke-linejoin="bevel" marker-start="none" marker-mid="none" marker-end="none" stroke-miterlimit="4" stroke-dashoffset="0" id="path4212" d="m225.934341,127.122925l-3.629135,77.875336l0.519318,32.989624l-4.375549,0.01239l3.052383,-79.881287l4.432983,-30.996063z"/>
   <path fill="url(#linearGradient4298)" fill-rule="nonzero" stroke-width="2" stroke-linecap="round" stroke-linejoin="bevel" marker-start="none" marker-mid="none" marker-end="none" stroke-miterlimit="4" stroke-dashoffset="0" d="m231.860962,159.895721c0,0 -8.726807,32.557251 -8.485214,48.736023c0.132217,8.854858 3.318039,29.110901 3.318039,29.110901l-5.53006,0.257629c0,0 -2.085571,-34.092285 -1.804245,-50.330017c0.181427,-10.471497 12.50148,-27.774536 12.50148,-27.774536z" id="path4214"/>
   <path fill="url(#linearGradient4300)" fill-rule="nonzero" stroke-width="2" stroke-linecap="round" stroke-linejoin="bevel" marker-start="none" marker-mid="none" marker-end="none" stroke-miterlimit="4" stroke-dashoffset="0" d="m233.06282,137.212402l-3.568207,0.308899l2.3414,59.764679l-3.214279,40.357178l5.357147,0.357117l1.747818,-69.773621l-4.994339,-28.185822l2.33046,-2.82843z" id="path4216"/>
   <path fill="url(#linearGradient4302)" fill-rule="nonzero" stroke-width="2" stroke-linecap="round" stroke-linejoin="bevel" marker-start="none" marker-mid="none" marker-end="none" stroke-miterlimit="4" stroke-dashoffset="0" id="path4218" d="m248.888641,156.107635c0,0 -12.480118,36.345337 -12.267471,52.524109c0.116394,8.854858 2.920761,29.110962 2.920761,29.110962l-4.86792,0.257568c0,0 -1.835846,-34.092285 -1.588211,-50.330017c0.159714,-10.471497 15.802841,-31.562622 15.802841,-31.562622z"/>
   <path fill="url(#linearGradient4304)" fill-rule="nonzero" stroke-width="2" stroke-linecap="round" stroke-linejoin="bevel" marker-start="none" marker-mid="none" marker-end="none" stroke-miterlimit="4" stroke-dashoffset="0" d="m221.332031,94.786011l-3.571426,102.499969l3.214279,40.357178l-5.357147,0.357117l-2.505432,-98.057892l8.219727,-45.156372z" id="path4220"/>
   <path fill="url(#linearGradient4306)" fill-rule="nonzero" stroke-width="2" stroke-linecap="round" stroke-linejoin="bevel" marker-start="none" marker-mid="none" marker-end="none" stroke-miterlimit="4" stroke-dashoffset="0" id="path4222" d="m241.649124,123.070282l4.329041,74.215698l-3.214294,40.357178l5.357147,0.357117l1.747818,-69.773621l-8.219711,-45.156372z"/>
   <path fill="url(#linearGradient4308)" fill-rule="nonzero" stroke-width="2" stroke-linecap="round" stroke-linejoin="bevel" marker-start="none" marker-mid="none" marker-end="none" stroke-miterlimit="4" stroke-dashoffset="0" d="m221.496567,163.813202c0,0 6.919464,35.231934 6.642288,49.069092c-0.151703,7.573303 -3.806824,24.897644 -3.806824,24.897644l6.344696,0.220337c0,0 2.392792,-29.15802 2.070023,-43.045593c-0.208145,-8.955933 -11.250183,-31.141479 -11.250183,-31.141479z" id="path4224"/>
   <path fill="url(#linearGradient4310)" fill-rule="nonzero" stroke-width="2" stroke-linecap="round" stroke-linejoin="bevel" marker-start="none" marker-mid="none" marker-end="none" stroke-miterlimit="4" stroke-dashoffset="0" id="path4226" d="m231.042511,163.813202c0,0 6.919464,35.231934 6.642288,49.069092c-0.151703,7.573303 -3.806824,24.897644 -3.806824,24.897644l6.344696,0.220337c0,0 2.392792,-29.15802 2.070023,-43.045593c-0.20816,-8.955933 -11.250183,-31.141479 -11.250183,-31.141479z"/>
   <path fill="url(#linearGradient4312)" fill-rule="nonzero" stroke-width="2" stroke-linecap="round" stroke-linejoin="bevel" marker-start="none" marker-mid="none" marker-end="none" stroke-miterlimit="4" stroke-dashoffset="0" d="m264.788757,172.298492c0,0 -5.808472,26.746643 -6.085632,40.583801c-0.151703,7.573303 -3.806824,24.897644 -3.806824,24.897644l6.344696,0.220337c0,0 2.392792,-29.15802 2.070038,-43.045593c-0.20816,-8.955933 1.477722,-22.656189 1.477722,-22.656189z" id="path4228"/>
   <path fill="url(#linearGradient4314)" fill-rule="nonzero" stroke-width="2" stroke-linecap="round" stroke-linejoin="bevel" marker-start="none" marker-mid="none" marker-end="none" stroke-miterlimit="4" stroke-dashoffset="0" d="m268.404541,147.521362c0,0 3.777039,33.59549 3.535461,53.800934c-0.132202,11.058777 -3.318054,36.356262 -3.318054,36.356262l5.53009,0.321716c0,0 2.085571,-42.577393 1.80423,-62.856445c-0.181427,-13.077698 -7.551727,-27.622467 -7.551727,-27.622467z" id="path4230"/>
   <path fill="url(#linearGradient4316)" fill-rule="nonzero" stroke-width="2" stroke-linecap="round" stroke-linejoin="bevel" marker-start="none" marker-mid="none" marker-end="none" stroke-miterlimit="4" stroke-dashoffset="0" d="m260.351624,167.045746c0,0 5.454712,26.19104 3.40979,45.836548c-0.784241,7.534119 -3.806824,24.897644 -3.806824,24.897644l6.344666,0.220337c0,0 2.392822,-29.15802 2.070038,-43.045593c-0.20816,-8.955933 -8.01767,-27.908936 -8.01767,-27.908936z" id="path4232"/>
   <path fill="url(#linearGradient4318)" fill-rule="nonzero" stroke-width="2" stroke-linecap="round" stroke-linejoin="bevel" marker-start="none" marker-mid="none" marker-end="none" stroke-miterlimit="4" stroke-dashoffset="0" d="m251.446594,127.122925l-3.629135,77.875336l0.519318,32.989624l-4.375549,0.01239l3.052383,-79.881287l4.432983,-30.996063z" id="path4234"/>
   <path fill="url(#linearGradient4320)" fill-rule="nonzero" stroke-width="2" stroke-linecap="round" stroke-linejoin="bevel" marker-start="none" marker-mid="none" marker-end="none" stroke-miterlimit="4" stroke-dashoffset="0" id="path4236" d="m260.323486,159.895721c0,0 -8.726807,32.557251 -8.485214,48.736023c0.132217,8.854858 3.318039,29.110901 3.318039,29.110901l-5.53006,0.257629c0,0 -2.085571,-34.092285 -1.804245,-50.330017c0.181427,-10.471497 12.50148,-27.774536 12.50148,-27.774536z"/>
   <path fill="url(#linearGradient4322)" fill-rule="nonzero" stroke-width="2" stroke-linecap="round" stroke-linejoin="bevel" marker-start="none" marker-mid="none" marker-end="none" stroke-miterlimit="4" stroke-dashoffset="0" id="path4238" d="m266.679718,137.389191l2.972534,0.132111l2.3414,59.764679l-3.214294,40.357178l5.357178,0.357117l1.747803,-69.773621l-5.171112,-32.428436l-4.033508,1.590973z"/>
   <path fill="url(#linearGradient4324)" fill-rule="nonzero" stroke-width="2" stroke-linecap="round" stroke-linejoin="bevel" marker-start="none" marker-mid="none" marker-end="none" stroke-miterlimit="4" stroke-dashoffset="0" d="m275.839844,156.107635c0,0 -12.480133,36.345337 -12.267456,52.524109c0.116394,8.854858 2.920746,29.110962 2.920746,29.110962l-4.86792,0.257568c0,0 -1.835846,-34.092285 -1.588226,-50.330017c0.159729,-10.471497 15.802856,-31.562622 15.802856,-31.562622z" id="path4240"/>
   <path fill="url(#linearGradient4326)" fill-rule="nonzero" stroke-width="2" stroke-linecap="round" stroke-linejoin="bevel" marker-start="none" marker-mid="none" marker-end="none" stroke-miterlimit="4" stroke-dashoffset="0" id="path4242" d="m249.435822,107.16037l3.571426,93.643555l-3.214294,36.870056l5.357132,0.326294l2.505432,-89.585236l-8.219696,-41.254669z"/>
   <path fill="url(#linearGradient4328)" fill-rule="nonzero" stroke-width="2" stroke-linecap="round" stroke-linejoin="bevel" marker-start="none" marker-mid="none" marker-end="none" stroke-miterlimit="4" stroke-dashoffset="0" d="m257.264984,123.070282l4.329041,74.215698l-3.214294,40.357178l5.357147,0.357117l1.747803,-69.773621l-8.219696,-45.156372z" id="path4244"/>
   <path fill="url(#linearGradient4330)" fill-rule="nonzero" stroke-width="2" stroke-linecap="round" stroke-linejoin="bevel" marker-start="none" marker-mid="none" marker-end="none" stroke-miterlimit="4" stroke-dashoffset="0" id="path4246" d="m262.447021,163.813202c0,0 6.919495,35.231934 6.642303,49.069092c-0.151703,7.573303 -3.806824,24.897644 -3.806824,24.897644l6.344696,0.220337c0,0 2.392792,-29.15802 2.070007,-43.045593c-0.20813,-8.955933 -11.250183,-31.141479 -11.250183,-31.141479z"/>
   <path fill="#4d9805" fill-rule="nonzero" stroke-width="2" stroke-linecap="round" stroke-linejoin="bevel" marker-start="none" marker-mid="none" marker-end="none" stroke-miterlimit="4" stroke-dashoffset="0" d="m265.392029,163.813202c0,0 6.919495,35.231934 6.642303,49.069092c-0.151703,7.573303 -3.806824,24.897644 -3.806824,24.897644l6.344696,0.220337c0,0 2.392761,-29.15802 2.070007,-43.045593c-0.20813,-8.955933 -11.250183,-31.141479 -11.250183,-31.141479z" id="path4248"/>
   <path fill="url(#linearGradient4332)" fill-rule="nonzero" stroke-width="2" stroke-linecap="round" stroke-linejoin="bevel" marker-start="none" marker-mid="none" marker-end="none" stroke-miterlimit="4" stroke-dashoffset="0" d="m288.802612,172.298492c0,0 5.808472,26.746643 6.085632,40.583801c0.151733,7.573303 3.806824,24.897644 3.806824,24.897644l-6.344666,0.220337c0,0 -2.392822,-29.15802 -2.070038,-43.045593c0.20816,-8.955933 -1.477753,-22.656189 -1.477753,-22.656189z" id="path4250"/>
   <path fill="url(#linearGradient4334)" fill-rule="nonzero" stroke-width="2" stroke-linecap="round" stroke-linejoin="bevel" marker-start="none" marker-mid="none" marker-end="none" stroke-miterlimit="4" stroke-dashoffset="0" d="m314.712769,147.521362c0,0 -3.7771,33.59549 -3.535492,53.800934c0.132233,11.058777 3.318024,36.356262 3.318024,36.356262l-5.530029,0.321716c0,0 -2.085571,-42.577393 -1.80426,-62.856445c0.181427,-13.077698 7.551758,-27.622467 7.551758,-27.622467z" id="path4252"/>
   <path fill="url(#linearGradient4336)" fill-rule="nonzero" stroke-width="2" stroke-linecap="round" stroke-linejoin="bevel" marker-start="none" marker-mid="none" marker-end="none" stroke-miterlimit="4" stroke-dashoffset="0" d="m283.272034,157.499786c0,0 -5.631531,35.737 -3.586609,55.382507c0.784241,7.534119 3.806824,24.897644 3.806824,24.897644l-6.344666,0.220337c0,0 -2.392792,-29.15802 -2.070007,-43.045593c0.20813,-8.955933 8.194458,-37.454895 8.194458,-37.454895z" id="path4254"/>
   <path fill="url(#linearGradient4338)" fill-rule="nonzero" stroke-width="2" stroke-linecap="round" stroke-linejoin="bevel" marker-start="none" marker-mid="none" marker-end="none" stroke-miterlimit="4" stroke-dashoffset="0" d="m292.850159,127.122925l3.629089,77.875336l-0.519287,32.989624l4.375549,0.01239l-3.052399,-79.881287l-4.432953,-30.996063z" id="path4256"/>
   <path fill="url(#linearGradient4340)" fill-rule="nonzero" stroke-width="2" stroke-linecap="round" stroke-linejoin="bevel" marker-start="none" marker-mid="none" marker-end="none" stroke-miterlimit="4" stroke-dashoffset="0" id="path4258" d="m286.923523,159.895721c0,0 8.726807,32.557251 8.485199,48.736023c-0.132233,8.854858 -3.318024,29.110901 -3.318024,29.110901l5.530029,0.257629c0,0 2.085571,-34.092285 1.80426,-50.330017c-0.181427,-10.471497 -12.501465,-27.774536 -12.501465,-27.774536z"/>
   <path fill="url(#linearGradient4342)" fill-rule="nonzero" stroke-width="2" stroke-linecap="round" stroke-linejoin="bevel" marker-start="none" marker-mid="none" marker-end="none" stroke-miterlimit="4" stroke-dashoffset="0" id="path4260" d="m285.72168,137.212402l3.568176,0.308899l-2.3414,59.764679l3.214294,40.357178l-5.357147,0.357117l-1.747803,-69.773621l4.994324,-28.185822l-2.330444,-2.82843z"/>
   <path fill="url(#linearGradient4344)" fill-rule="nonzero" stroke-width="2" stroke-linecap="round" stroke-linejoin="bevel" marker-start="none" marker-mid="none" marker-end="none" stroke-miterlimit="4" stroke-dashoffset="0" d="m303.395813,156.107635c0,0 12.480164,36.345337 12.267487,52.524109c-0.116394,8.854858 -2.920746,29.110962 -2.920746,29.110962l4.86792,0.257568c0,0 1.835815,-34.092285 1.588196,-50.330017c-0.159698,-10.471497 -15.802856,-31.562622 -15.802856,-31.562622z" id="path4262"/>
   <path fill="url(#linearGradient4346)" fill-rule="nonzero" stroke-width="2" stroke-linecap="round" stroke-linejoin="bevel" marker-start="none" marker-mid="none" marker-end="none" stroke-miterlimit="4" stroke-dashoffset="0" id="path4264" d="m282.952454,94.786011l3.571411,102.499969l-3.214294,40.357178l5.357178,0.357117l2.505432,-98.057892l-8.219727,-45.156372z"/>
   <path fill="url(#linearGradient4348)" fill-rule="nonzero" stroke-width="2" stroke-linecap="round" stroke-linejoin="bevel" marker-start="none" marker-mid="none" marker-end="none" stroke-miterlimit="4" stroke-dashoffset="0" d="m325.635376,123.070282l-4.329041,74.215698l3.214294,40.357178l-5.357178,0.357117l-1.747803,-69.773621l8.219727,-45.156372z" id="path4266"/>
   <path fill="url(#linearGradient4350)" fill-rule="nonzero" stroke-width="2" stroke-linecap="round" stroke-linejoin="bevel" marker-start="none" marker-mid="none" marker-end="none" stroke-miterlimit="4" stroke-dashoffset="0" id="path4268" d="m297.287903,163.813202c0,0 -6.919464,35.231934 -6.642273,49.069092c0.151672,7.573303 3.806824,24.897644 3.806824,24.897644l-6.344727,0.220337c0,0 -2.392761,-29.15802 -2.070007,-43.045593c0.20816,-8.955933 11.250183,-31.141479 11.250183,-31.141479z"/>
   <path fill="url(#linearGradient4352)" fill-rule="nonzero" stroke-width="2" stroke-linecap="round" stroke-linejoin="bevel" marker-start="none" marker-mid="none" marker-end="none" stroke-miterlimit="4" stroke-dashoffset="0" d="m287.741974,163.813202c0,0 -6.919464,35.231934 -6.642303,49.069092c0.151703,7.573303 3.806824,24.897644 3.806824,24.897644l-6.344666,0.220337c0,0 -2.392822,-29.15802 -2.070038,-43.045593c0.20816,-8.955933 11.250183,-31.141479 11.250183,-31.141479z" id="path4270"/>
   <path fill="url(#linearGradient4354)" fill-rule="nonzero" stroke-width="2" stroke-linecap="round" stroke-linejoin="bevel" marker-start="none" marker-mid="none" marker-end="none" stroke-miterlimit="4" stroke-dashoffset="0" id="path4272" d="m302.495728,172.298492c0,0 5.808441,26.746643 6.085632,40.583801c0.151672,7.573303 3.806824,24.897644 3.806824,24.897644l-6.344727,0.220337c0,0 -2.392761,-29.15802 -2.070007,-43.045593c0.20816,-8.955933 -1.477722,-22.656189 -1.477722,-22.656189z"/>
   <path fill="url(#linearGradient4356)" fill-rule="nonzero" stroke-width="2" stroke-linecap="round" stroke-linejoin="bevel" marker-start="none" marker-mid="none" marker-end="none" stroke-miterlimit="4" stroke-dashoffset="0" id="path4274" d="m298.879944,147.521362c0,0 -3.777069,33.59549 -3.535461,53.800934c0.132202,11.058777 3.318024,36.356262 3.318024,36.356262l-5.53006,0.321716c0,0 -2.085571,-42.577393 -1.80426,-62.856445c0.181458,-13.077698 7.551758,-27.622467 7.551758,-27.622467z"/>
   <path fill="url(#linearGradient4358)" fill-rule="nonzero" stroke-width="2" stroke-linecap="round" stroke-linejoin="bevel" marker-start="none" marker-mid="none" marker-end="none" stroke-miterlimit="4" stroke-dashoffset="0" id="path4276" d="m306.932861,167.045746c0,0 -5.454742,26.19104 -3.40979,45.836548c0.784241,7.534119 3.806824,24.897644 3.806824,24.897644l-6.344696,0.220337c0,0 -2.392792,-29.15802 -2.070038,-43.045593c0.20816,-8.955933 8.0177,-27.908936 8.0177,-27.908936z"/>
   <path fill="url(#linearGradient4360)" fill-rule="nonzero" stroke-width="2" stroke-linecap="round" stroke-linejoin="bevel" marker-start="none" marker-mid="none" marker-end="none" stroke-miterlimit="4" stroke-dashoffset="0" id="path4278" d="m317.337891,127.122925l3.62912,77.875336l-0.519318,32.989624l4.375549,0.01239l-3.052368,-79.881287l-4.432983,-30.996063z"/>
   <path fill="url(#linearGradient4362)" fill-rule="nonzero" stroke-width="2" stroke-linecap="round" stroke-linejoin="bevel" marker-start="none" marker-mid="none" marker-end="none" stroke-miterlimit="4" stroke-dashoffset="0" d="m300.604736,137.389191l-2.972534,0.132111l-2.34137,59.764679l3.214294,40.357178l-5.357178,0.357117l-1.747803,-69.773621l5.171082,-32.428436l4.033508,1.590973z" id="path4280"/>
   <path fill="url(#linearGradient4364)" fill-rule="nonzero" stroke-width="2" stroke-linecap="round" stroke-linejoin="bevel" marker-start="none" marker-mid="none" marker-end="none" stroke-miterlimit="4" stroke-dashoffset="0" id="path4282" d="m291.444641,156.107635c0,0 12.480103,36.345337 12.267456,52.524109c-0.116394,8.854858 -2.920776,29.110962 -2.920776,29.110962l4.86792,0.257568c0,0 1.835876,-34.092285 1.588226,-50.330017c-0.159698,-10.471497 -15.802826,-31.562622 -15.802826,-31.562622z"/>
   <path fill="url(#linearGradient4366)" fill-rule="nonzero" stroke-width="2" stroke-linecap="round" stroke-linejoin="bevel" marker-start="none" marker-mid="none" marker-end="none" stroke-miterlimit="4" stroke-dashoffset="0" d="m317.848663,107.16037l-3.571442,93.643555l3.214294,36.870056l-5.357147,0.326294l-2.505432,-89.585236l8.219727,-41.254669z" id="path4284"/>
   <path fill="url(#linearGradient4368)" fill-rule="nonzero" stroke-width="2" stroke-linecap="round" stroke-linejoin="bevel" marker-start="none" marker-mid="none" marker-end="none" stroke-miterlimit="4" stroke-dashoffset="0" id="path4286" d="m310.019501,123.070282l-4.329041,74.215698l3.214294,40.357178l-5.357147,0.357117l-1.747833,-69.773621l8.219727,-45.156372z"/>
  </g>
  <rect fill="url(#linearGradient4400)" fill-rule="nonzero" stroke-width="2" stroke-linecap="round" stroke-linejoin="bevel" stroke-miterlimit="4" stroke-dashoffset="0" y="216.12132" x="-1.29289" height="22.5" width="327" id="rect4392"/>
 </g>
</svg>