<?xml version="1.0" encoding="utf-8"?>
<!-- Generator: Adobe Illustrator 21.0.0, SVG Export Plug-In . SVG Version: 6.00 Build 0)  -->
<svg version="1.1" id="stops" xmlns="http://www.w3.org/2000/svg" xmlns:xlink="http://www.w3.org/1999/xlink" x="0px" y="0px"
	 viewBox="0 0 64 64" style="enable-background:new 0 0 64 64;" xml:space="preserve">
<style type="text/css">
	.st0{fill:#01579B;}
	.st1{fill:#4FC3F7;}
	.st2{fill:#039BE5;}
	.st3{fill:#031219;}
	.st4{display:none;}
	.st5{display:inline;fill:#9B4D0D;}
	.st6{display:inline;fill:#F79E61;}
	.st7{display:inline;fill:#E56A14;}
	.st8{display:inline;fill:#190D05;}
	.st9{display:inline;fill:#13181C;}
	.st10{display:inline;fill:#303030;}
	.st11{display:inline;fill:#1F282D;}
	.st12{display:inline;}
	.st13{display:inline;fill:#C62828;}
	.st14{display:inline;fill:#9B455C;}
	.st15{display:inline;fill:#F7BCD3;}
	.st16{display:inline;fill:#E56896;}
	.st17{display:inline;fill:#190D12;}
	.st18{display:inline;fill:#22819B;}
	.st19{display:inline;fill:#83EDF7;}
	.st20{display:inline;fill:#33D3E5;}
	.st21{display:inline;fill:#081719;}
	.st22{display:inline;fill:#16790E;}
	.st23{display:inline;fill:#6CCF56;}
	.st24{display:inline;fill:#34BE17;}
	.st25{display:inline;fill:#020501;}
	.st26{display:inline;fill:#F9A825;}
	.st27{display:inline;fill:#FFF176;}
	.st28{display:inline;fill:#FDD835;}
	.st29{display:inline;fill:#110D02;}
	.st30{fill:#E56896;}
	.st31{fill:#190D12;}
	.st32{fill:#F29BBF;}
	.st33{fill:#83EDF7;}
	.st34{fill:#081719;}
	.st35{fill:#FFFFFF;}
	.st36{fill:#16790E;}
	.st37{fill:#020501;}
	.st38{fill:#34BE17;}
	.st39{fill:#F9A825;}
	.st40{fill:#110D02;}
	.st41{fill:#FDD835;}
</style>
<g id="Pstop_1_">
	<path id="right" class="st0" d="M44.5,25.5c-4,2.3-8.5,4.7-12.5,7v-14c4-2.3,8.5-4.7,12.5-7C44.5,16.2,44.5,20.8,44.5,25.5z"/>
	<path id="left" class="st1" d="M19.5,25.5c4,2.3,8.5,4.7,12.5,7v-14c-4-2.3-8.5-4.7-12.5-7C19.5,16.2,19.5,20.8,19.5,25.5z"/>
	<path id="top" class="st2" d="M32,4.5c-4.2,2.3-8.3,4.7-12.5,7c4.2,2.3,8.3,4.7,12.5,7c4.2-2.3,8.3-4.7,12.5-7
		C40.3,9.2,36.2,6.8,32,4.5z"/>
	<path id="middle" class="st1" d="M40.5,43.5c-2.8,1.7-5.7,3.3-8.5,5c-2.8-1.7-5.7-3.3-8.5-5c2.8-1.7,5.7-3.3,8.5-5
		C34.8,40.2,37.7,41.8,40.5,43.5z"/>
	<circle id="base" class="st1" cx="32" cy="57" r="2.5"/>
	<path id="outline" class="st3" d="M44.5,10.9L32,3.9l-12.5,7L19,11.2v14.6l12,7v5.7l0,0c-1.2,0.7-2.4,1.4-3.5,2.1
		c-1.4,0.8-2.8,1.7-4.3,2.5l-0.7,0.4l0.7,0.4c1.4,0.8,2.8,1.7,4.3,2.5c1.2,0.7,2.3,1.4,3.5,2.1l0,0v5.7c-1.2,0.4-2,1.5-2,2.8
		c0,1.6,1.3,3,3,3s3-1.4,3-3c0-1.3-0.8-2.4-2-2.8v-5.7l0,0c1.2-0.7,2.4-1.4,3.5-2.1c1.4-0.8,2.8-1.7,4.3-2.5l0.7-0.4l-0.7-0.4
		c-1.4-0.8-2.8-1.7-4.3-2.5c-1.2-0.7-2.3-1.4-3.5-2.1l0,0v-5.7l12-7V11.2L44.5,10.9z M31,31.6l-11-6.4V12.4l11,6.4V31.6z M20.5,11.5
		L32,5.1l11.5,6.4L32,17.9L20.5,11.5z M34,57c0,1.1-0.9,2-2,2s-2-0.9-2-2s0.9-2,2-2C33.1,55,34,55.9,34,57z M36,41.4
		c1.2,0.7,2.3,1.4,3.5,2.1c-1.2,0.7-2.4,1.4-3.5,2.1c-1.3,0.8-2.7,1.6-4,2.3c-1.3-0.8-2.7-1.6-4-2.3c-1.2-0.7-2.3-1.4-3.5-2.1
		c1.2-0.7,2.4-1.4,3.5-2.1c1.3-0.8,2.7-1.6,4-2.4C33.3,39.9,34.7,40.6,36,41.4z M44,25.2l-11,6.4V18.8l11-6.4V25.2z"/>
</g>
<g id="Quest_1_" class="st4">
	<path id="right_1_" class="st5" d="M44.5,25.5c-4,2.3-8.5,4.7-12.5,7v-14c4-2.3,8.5-4.7,12.5-7C44.5,16.2,44.5,20.8,44.5,25.5z"/>
	<path id="left_1_" class="st6" d="M19.5,25.5c4,2.3,8.5,4.7,12.5,7v-14c-4-2.3-8.5-4.7-12.5-7C19.5,16.2,19.5,20.8,19.5,25.5z"/>
	<path id="top_1_" class="st7" d="M32,4.5c-4.2,2.3-8.3,4.7-12.5,7c4.2,2.3,8.3,4.7,12.5,7c4.2-2.3,8.3-4.7,12.5-7
		C40.3,9.2,36.2,6.8,32,4.5z"/>
	<path id="middle_1_" class="st6" d="M40.5,43.5c-2.8,1.7-5.7,3.3-8.5,5c-2.8-1.7-5.7-3.3-8.5-5c2.8-1.7,5.7-3.3,8.5-5
		C34.8,40.2,37.7,41.8,40.5,43.5z"/>
	<circle id="base_1_" class="st6" cx="32" cy="57" r="2.5"/>
	<path id="outline_1_" class="st8" d="M44.5,10.9L32,3.9l-12.5,7L19,11.2v14.6l12,7v5.7l0,0c-1.2,0.7-2.4,1.4-3.5,2.1
		c-1.4,0.8-2.8,1.7-4.3,2.5l-0.7,0.4l0.7,0.4c1.4,0.8,2.8,1.7,4.3,2.5c1.2,0.7,2.3,1.4,3.5,2.1l0,0v5.7c-1.2,0.4-2,1.5-2,2.8
		c0,1.6,1.3,3,3,3s3-1.4,3-3c0-1.3-0.8-2.4-2-2.8v-5.7l0,0c1.2-0.7,2.4-1.4,3.5-2.1c1.4-0.8,2.8-1.7,4.3-2.5l0.7-0.4l-0.7-0.4
		c-1.4-0.8-2.8-1.7-4.3-2.5c-1.2-0.7-2.3-1.4-3.5-2.1l0,0v-5.7l12-7V11.2L44.5,10.9z M31,31.6l-11-6.4V12.4l11,6.4V31.6z M20.5,11.5
		L32,5.1l11.5,6.4L32,17.9L20.5,11.5z M34,57c0,1.1-0.9,2-2,2s-2-0.9-2-2s0.9-2,2-2C33.1,55,34,55.9,34,57z M36,41.4
		c1.2,0.7,2.3,1.4,3.5,2.1c-1.2,0.7-2.4,1.4-3.5,2.1c-1.3,0.8-2.7,1.6-4,2.3c-1.3-0.8-2.7-1.6-4-2.3c-1.2-0.7-2.3-1.4-3.5-2.1
		c1.2-0.7,2.4-1.4,3.5-2.1c1.3-0.8,2.7-1.6,4-2.4C33.3,39.9,34.7,40.6,36,41.4z M44,25.2l-11,6.4V18.8l11-6.4V25.2z"/>
</g>
<g id="rocket-base_1_" class="st4">
	<path id="right_2_" class="st9" d="M44.5,25.5c-4,2.3-8.5,4.7-12.5,7v-14c4-2.3,8.5-4.7,12.5-7C44.5,16.2,44.5,20.8,44.5,25.5z"/>
	<path id="left_2_" class="st10" d="M19.5,25.5c4,2.3,8.5,4.7,12.5,7v-14c-4-2.3-8.5-4.7-12.5-7C19.5,16.2,19.5,20.8,19.5,25.5z"/>
	<path id="top_2_" class="st11" d="M32,4.5c-4.2,2.3-8.3,4.7-12.5,7c4.2,2.3,8.3,4.7,12.5,7c4.2-2.3,8.3-4.7,12.5-7
		C40.3,9.2,36.2,6.8,32,4.5z"/>
	<path id="middle_2_" class="st10" d="M40.5,43.5c-2.8,1.7-5.7,3.3-8.5,5c-2.8-1.7-5.7-3.3-8.5-5c2.8-1.7,5.7-3.3,8.5-5
		C34.8,40.2,37.7,41.8,40.5,43.5z"/>
	<circle id="base_2_" class="st10" cx="32" cy="57" r="2.5"/>
	<path id="outline_2_" class="st12" d="M44.5,10.9L32,3.9l-12.5,7L19,11.2v14.6l12,7v5.7l0,0c-1.2,0.7-2.4,1.4-3.5,2.1
		c-1.4,0.8-2.8,1.7-4.3,2.5l-0.7,0.4l0.7,0.4c1.4,0.8,2.8,1.7,4.3,2.5c1.2,0.7,2.3,1.4,3.5,2.1l0,0v5.7c-1.2,0.4-2,1.5-2,2.8
		c0,1.6,1.3,3,3,3s3-1.4,3-3c0-1.3-0.8-2.4-2-2.8v-5.7l0,0c1.2-0.7,2.4-1.4,3.5-2.1c1.4-0.8,2.8-1.7,4.3-2.5l0.7-0.4l-0.7-0.4
		c-1.4-0.8-2.8-1.7-4.3-2.5c-1.2-0.7-2.3-1.4-3.5-2.1l0,0v-5.7l12-7V11.2L44.5,10.9z M31,31.6l-11-6.4V12.4l11,6.4V31.6z M20.5,11.5
		L32,5.1l11.5,6.4L32,17.9L20.5,11.5z M34,57c0,1.1-0.9,2-2,2s-2-0.9-2-2s0.9-2,2-2C33.1,55,34,55.9,34,57z M36,41.4
		c1.2,0.7,2.3,1.4,3.5,2.1c-1.2,0.7-2.4,1.4-3.5,2.1c-1.3,0.8-2.7,1.6-4,2.3c-1.3-0.8-2.7-1.6-4-2.3c-1.2-0.7-2.3-1.4-3.5-2.1
		c1.2-0.7,2.4-1.4,3.5-2.1c1.3-0.8,2.7-1.6,4-2.4C33.3,39.9,34.7,40.6,36,41.4z M44,25.2l-11,6.4V18.8l11-6.4V25.2z"/>
	<path id="R" class="st13" d="M40.5,22.2c1-0.6,1.4-1,1.7-1.7c0.6-1.3,0.3-3.3-1-4.1c-0.8-0.5-1.9-0.1-3.5,0.5
		c-0.8,0.3-1.4,0.6-1.8,0.9c-0.3,0.2-0.7,0.4-1,0.7c0,1.8,0,3.5,0,5.3c0,1.7,0,3.4,0,5.1c0.6-0.4,1.3-0.7,1.9-1.1c0-1.3,0-2.5,0-3.8
		c0.6-0.3,1.2-0.6,1.8-1c0.7,0.8,1.4,1.6,2.2,2.5c0.6-0.3,1.2-0.7,1.8-1C42,23.8,41.3,23,40.5,22.2z M36.9,21.9v-2.1
		c0.6-0.4,1.2-0.7,1.8-1s1.5-0.7,1.7-0.6s0.4,0.9,0.1,1.5c-0.2,0.3-0.5,0.5-2,1.3C38,21.3,37.4,21.6,36.9,21.9z"/>
</g>
<g id="lure-base_1_" class="st4">
	<path id="right_3_" class="st14" d="M44.5,25.5c-4,2.3-8.5,4.7-12.5,7v-14c4-2.3,8.5-4.7,12.5-7C44.5,16.2,44.5,20.8,44.5,25.5z"/>
	<path id="left_3_" class="st15" d="M19.5,25.5c4,2.3,8.5,4.7,12.5,7v-14c-4-2.3-8.5-4.7-12.5-7C19.5,16.2,19.5,20.8,19.5,25.5z"/>
	<path id="top_3_" class="st16" d="M32,4.5c-4.2,2.3-8.3,4.7-12.5,7c4.2,2.3,8.3,4.7,12.5,7c4.2-2.3,8.3-4.7,12.5-7
		C40.3,9.2,36.2,6.8,32,4.5z"/>
	<path id="middle_3_" class="st15" d="M40.5,43.5c-2.8,1.7-5.7,3.3-8.5,5c-2.8-1.7-5.7-3.3-8.5-5c2.8-1.7,5.7-3.3,8.5-5
		C34.8,40.2,37.7,41.8,40.5,43.5z"/>
	<circle id="base_3_" class="st15" cx="32" cy="57" r="2.5"/>
	<path id="outline_3_" class="st17" d="M44.5,10.9L32,3.9l-12.5,7L19,11.2v14.6l12,7v5.7l0,0c-1.2,0.7-2.4,1.4-3.5,2.1
		c-1.4,0.8-2.8,1.7-4.3,2.5l-0.7,0.4l0.7,0.4c1.4,0.8,2.8,1.7,4.3,2.5c1.2,0.7,2.3,1.4,3.5,2.1l0,0v5.7c-1.2,0.4-2,1.5-2,2.8
		c0,1.6,1.3,3,3,3s3-1.4,3-3c0-1.3-0.8-2.4-2-2.8v-5.7l0,0c1.2-0.7,2.4-1.4,3.5-2.1c1.4-0.8,2.8-1.7,4.3-2.5l0.7-0.4l-0.7-0.4
		c-1.4-0.8-2.8-1.7-4.3-2.5c-1.2-0.7-2.3-1.4-3.5-2.1l0,0v-5.7l12-7V11.2L44.5,10.9z M31,31.6l-11-6.4V12.4l11,6.4V31.6z M20.5,11.5
		L32,5.1l11.5,6.4L32,17.9L20.5,11.5z M34,57c0,1.1-0.9,2-2,2s-2-0.9-2-2s0.9-2,2-2C33.1,55,34,55.9,34,57z M36,41.4
		c1.2,0.7,2.3,1.4,3.5,2.1c-1.2,0.7-2.4,1.4-3.5,2.1c-1.3,0.8-2.7,1.6-4,2.3c-1.3-0.8-2.7-1.6-4-2.3c-1.2-0.7-2.3-1.4-3.5-2.1
		c1.2-0.7,2.4-1.4,3.5-2.1c1.3-0.8,2.7-1.6,4-2.4C33.3,39.9,34.7,40.6,36,41.4z M44,25.2l-11,6.4V18.8l11-6.4V25.2z"/>
</g>
<g id="icy-base_1_" class="st4">
	<path id="right_4_" class="st18" d="M44.5,25.5c-4,2.3-8.5,4.7-12.5,7v-14c4-2.3,8.5-4.7,12.5-7C44.5,16.2,44.5,20.8,44.5,25.5z"/>
	<path id="left_4_" class="st19" d="M19.5,25.5c4,2.3,8.5,4.7,12.5,7v-14c-4-2.3-8.5-4.7-12.5-7C19.5,16.2,19.5,20.8,19.5,25.5z"/>
	<path id="top_4_" class="st20" d="M32,4.5c-4.2,2.3-8.3,4.7-12.5,7c4.2,2.3,8.3,4.7,12.5,7c4.2-2.3,8.3-4.7,12.5-7
		C40.3,9.2,36.2,6.8,32,4.5z"/>
	<path id="middle_4_" class="st19" d="M40.5,43.5c-2.8,1.7-5.7,3.3-8.5,5c-2.8-1.7-5.7-3.3-8.5-5c2.8-1.7,5.7-3.3,8.5-5
		C34.8,40.2,37.7,41.8,40.5,43.5z"/>
	<circle id="base_4_" class="st19" cx="32" cy="57" r="2.5"/>
	<path id="outline_4_" class="st21" d="M44.5,10.9L32,3.9l-12.5,7L19,11.2v14.6l12,7v5.7l0,0c-1.2,0.7-2.4,1.4-3.5,2.1
		c-1.4,0.8-2.8,1.7-4.3,2.5l-0.7,0.4l0.7,0.4c1.4,0.8,2.8,1.7,4.3,2.5c1.2,0.7,2.3,1.4,3.5,2.1l0,0v5.7c-1.2,0.4-2,1.5-2,2.8
		c0,1.6,1.3,3,3,3s3-1.4,3-3c0-1.3-0.8-2.4-2-2.8v-5.7l0,0c1.2-0.7,2.4-1.4,3.5-2.1c1.4-0.8,2.8-1.7,4.3-2.5l0.7-0.4l-0.7-0.4
		c-1.4-0.8-2.8-1.7-4.3-2.5c-1.2-0.7-2.3-1.4-3.5-2.1l0,0v-5.7l12-7V11.2L44.5,10.9z M31,31.6l-11-6.4V12.4l11,6.4V31.6z M20.5,11.5
		L32,5.1l11.5,6.4L32,17.9L20.5,11.5z M34,57c0,1.1-0.9,2-2,2s-2-0.9-2-2s0.9-2,2-2C33.1,55,34,55.9,34,57z M36,41.4
		c1.2,0.7,2.3,1.4,3.5,2.1c-1.2,0.7-2.4,1.4-3.5,2.1c-1.3,0.8-2.7,1.6-4,2.3c-1.3-0.8-2.7-1.6-4-2.3c-1.2-0.7-2.3-1.4-3.5-2.1
		c1.2-0.7,2.4-1.4,3.5-2.1c1.3-0.8,2.7-1.6,4-2.4C33.3,39.9,34.7,40.6,36,41.4z M44,25.2l-11,6.4V18.8l11-6.4V25.2z"/>
</g>
<g id="mossy-base_1_" class="st4">
	<path id="right_5_" class="st22" d="M44.5,25.5c-4,2.3-8.5,4.7-12.5,7v-14c4-2.3,8.5-4.7,12.5-7C44.5,16.2,44.5,20.8,44.5,25.5z"/>
	<path id="left_5_" class="st23" d="M19.5,25.5c4,2.3,8.5,4.7,12.5,7v-14c-4-2.3-8.5-4.7-12.5-7C19.5,16.2,19.5,20.8,19.5,25.5z"/>
	<path id="top_5_" class="st24" d="M32,4.5c-4.2,2.3-8.3,4.7-12.5,7c4.2,2.3,8.3,4.7,12.5,7c4.2-2.3,8.3-4.7,12.5-7
		C40.3,9.2,36.2,6.8,32,4.5z"/>
	<path id="middle_5_" class="st23" d="M40.5,43.5c-2.8,1.7-5.7,3.3-8.5,5c-2.8-1.7-5.7-3.3-8.5-5c2.8-1.7,5.7-3.3,8.5-5
		C34.8,40.2,37.7,41.8,40.5,43.5z"/>
	<circle id="base_5_" class="st23" cx="32" cy="57" r="2.5"/>
	<path id="outline_5_" class="st25" d="M44.5,10.9L32,3.9l-12.5,7L19,11.2v14.6l12,7v5.7l0,0c-1.2,0.7-2.4,1.4-3.5,2.1
		c-1.4,0.8-2.8,1.7-4.3,2.5l-0.7,0.4l0.7,0.4c1.4,0.8,2.8,1.7,4.3,2.5c1.2,0.7,2.3,1.4,3.5,2.1l0,0v5.7c-1.2,0.4-2,1.5-2,2.8
		c0,1.6,1.3,3,3,3s3-1.4,3-3c0-1.3-0.8-2.4-2-2.8v-5.7l0,0c1.2-0.7,2.4-1.4,3.5-2.1c1.4-0.8,2.8-1.7,4.3-2.5l0.7-0.4l-0.7-0.4
		c-1.4-0.8-2.8-1.7-4.3-2.5c-1.2-0.7-2.3-1.4-3.5-2.1l0,0v-5.7l12-7V11.2L44.5,10.9z M31,31.6l-11-6.4V12.4l11,6.4V31.6z M20.5,11.5
		L32,5.1l11.5,6.4L32,17.9L20.5,11.5z M34,57c0,1.1-0.9,2-2,2s-2-0.9-2-2s0.9-2,2-2C33.1,55,34,55.9,34,57z M36,41.4
		c1.2,0.7,2.3,1.4,3.5,2.1c-1.2,0.7-2.4,1.4-3.5,2.1c-1.3,0.8-2.7,1.6-4,2.3c-1.3-0.8-2.7-1.6-4-2.3c-1.2-0.7-2.3-1.4-3.5-2.1
		c1.2-0.7,2.4-1.4,3.5-2.1c1.3-0.8,2.7-1.6,4-2.4C33.3,39.9,34.7,40.6,36,41.4z M44,25.2l-11,6.4V18.8l11-6.4V25.2z"/>
</g>
<g id="metal-base_1_" class="st4">
	<path id="right_6_" class="st26" d="M44.5,25.5c-4,2.3-8.5,4.7-12.5,7v-14c4-2.3,8.5-4.7,12.5-7C44.5,16.2,44.5,20.8,44.5,25.5z"/>
	<path id="left_6_" class="st27" d="M19.5,25.5c4,2.3,8.5,4.7,12.5,7v-14c-4-2.3-8.5-4.7-12.5-7C19.5,16.2,19.5,20.8,19.5,25.5z"/>
	<path id="top_6_" class="st28" d="M32,4.5c-4.2,2.3-8.3,4.7-12.5,7c4.2,2.3,8.3,4.7,12.5,7c4.2-2.3,8.3-4.7,12.5-7
		C40.3,9.2,36.2,6.8,32,4.5z"/>
	<path id="metal" class="st27" d="M40.5,43.5c-2.8,1.7-5.7,3.3-8.5,5c-2.8-1.7-5.7-3.3-8.5-5c2.8-1.7,5.7-3.3,8.5-5
		C34.8,40.2,37.7,41.8,40.5,43.5z"/>
	<circle id="base_6_" class="st27" cx="32" cy="57" r="2.5"/>
	<path id="outline_6_" class="st29" d="M44.5,10.9L32,3.9l-12.5,7L19,11.2v14.6l12,7v5.7l0,0c-1.2,0.7-2.4,1.4-3.5,2.1
		c-1.4,0.8-2.8,1.7-4.3,2.5l-0.7,0.4l0.7,0.4c1.4,0.8,2.8,1.7,4.3,2.5c1.2,0.7,2.3,1.4,3.5,2.1l0,0v5.7c-1.2,0.4-2,1.5-2,2.8
		c0,1.6,1.3,3,3,3s3-1.4,3-3c0-1.3-0.8-2.4-2-2.8v-5.7l0,0c1.2-0.7,2.4-1.4,3.5-2.1c1.4-0.8,2.8-1.7,4.3-2.5l0.7-0.4l-0.7-0.4
		c-1.4-0.8-2.8-1.7-4.3-2.5c-1.2-0.7-2.3-1.4-3.5-2.1l0,0v-5.7l12-7V11.2L44.5,10.9z M31,31.6l-11-6.4V12.4l11,6.4V31.6z M20.5,11.5
		L32,5.1l11.5,6.4L32,17.9L20.5,11.5z M34,57c0,1.1-0.9,2-2,2s-2-0.9-2-2s0.9-2,2-2C33.1,55,34,55.9,34,57z M36,41.4
		c1.2,0.7,2.3,1.4,3.5,2.1c-1.2,0.7-2.4,1.4-3.5,2.1c-1.3,0.8-2.7,1.6-4,2.3c-1.3-0.8-2.7-1.6-4-2.3c-1.2-0.7-2.3-1.4-3.5-2.1
		c1.2-0.7,2.4-1.4,3.5-2.1c1.3-0.8,2.7-1.6,4-2.4C33.3,39.9,34.7,40.6,36,41.4z M44,25.2l-11,6.4V18.8l11-6.4V25.2z"/>
</g>
<g id="lure-overlay_1_" class="st4">
	<g id="base_7_" class="st12">
		<g id="base4">
			<path class="st30" d="M19.7,21.9c-0.5,0-0.8-0.1-1-0.4c-0.4-0.4-0.3-0.9,0-2c0.1-0.4,0.2-0.9,0.4-1.6c0.1-0.4,0.2-0.8,0.3-1.2
				c-1.1,0.7-2.2,1.1-3.1,1.1c-0.5,0-1-0.1-1.3-0.4c-1.1-0.9-0.8-2.8-0.3-4.2c0.2-0.7,0.5-1.3,0.6-1.7c0.9-2,2.3-3.1,3.9-4.3
				c1.9-1.6,4.9-2.6,5-2.6s0.1,0,0.2,0s0.2,0,0.2,0.1c0.1,0.1,0.2,0.2,0.2,0.3c0.4,2,0.7,4,0.8,6v1.1c0.1,3.2,0.1,5.8-1.6,7.7
				C22.6,21.1,20.8,21.9,19.7,21.9z"/>
			<path class="st31" d="M24.2,5c0.5,2.3,0.7,4.3,0.8,5.9c0,0.4,0,0.7,0,1.1c0.1,3.3,0,5.6-1.5,7.4c-1.1,1.3-2.8,2-3.8,2
				c-0.3,0-0.5-0.1-0.7-0.2c-0.3-0.3,0-0.8,0.5-3.2c0.2-1,0.4-1.9,0.5-2.5c-1.3,1.2-2.8,1.8-3.8,1.8c-0.4,0-0.8-0.1-1-0.3
				c-0.8-0.7-0.6-2.3-0.2-3.7c0.2-0.6,0.4-1.2,0.6-1.6c0.9-1.9,2.2-2.9,3.7-4.1C21.2,6,24.2,5,24.2,5 M24.2,4c-0.1,0-0.2,0-0.3,0.1
				c-0.1,0-3.1,1.1-5.1,2.7c-1.6,1.3-3,2.4-4,4.5c-0.2,0.4-0.5,1-0.7,1.8c-0.7,2.3-0.5,3.9,0.5,4.8c0.4,0.3,1,0.5,1.6,0.5
				c0.7,0,1.5-0.2,2.4-0.6v0.1c-0.1,0.7-0.3,1.2-0.4,1.6c-0.3,1.2-0.5,1.9,0.1,2.5c0.2,0.2,0.7,0.5,1.4,0.5c1.2,0,3.2-0.8,4.5-2.3
				c1.8-2.1,1.9-4.8,1.7-8.1c0-0.2,0-0.4,0-0.6c0-0.2,0-0.4,0-0.5c-0.1-2-0.3-4.1-0.8-6.1c-0.1-0.3-0.2-0.5-0.5-0.7
				C24.5,4,24.3,4,24.2,4L24.2,4z"/>
		</g>
		<g id="base3">
			<path class="st30" d="M43.9,34.5c-1.4,0-2.6-0.3-3.7-0.9c-2.7-1.4-4.3-4.6-4.2-8.2c0-0.1,0.1-0.3,0.2-0.4
				c0.1-0.1,0.2-0.1,0.3-0.1l0,0c0.5,0,1.1,0.1,1.7,0.1c0.6,0.1,1.2,0.2,1.8,0.3c2.9,0.6,5,1.6,6.3,2.4c2.4,1.4,3.9,2.3,3.8,3.6
				c-0.1,0.7-0.7,1.4-1.7,2C47.3,34,45.5,34.5,43.9,34.5z"/>
			<path class="st31" d="M36.5,25.5c0.5,0,1,0,1.7,0.1c0.5,0.1,1.2,0.2,1.8,0.3c3.2,0.7,5.4,1.9,6.2,2.3c2.2,1.3,3.6,2.2,3.5,3.1
				c0,0.5-0.6,1.1-1.4,1.6C47.2,33.5,45.6,34,44,34c-1.2,0-2.4-0.2-3.5-0.8C37.9,31.8,36.4,28.8,36.5,25.5 M36.5,24.5
				c-0.3,0-0.5,0.1-0.7,0.3c-0.2,0.2-0.3,0.4-0.3,0.7c-0.1,3.8,1.6,7.1,4.5,8.6c1.2,0.6,2.5,0.9,3.9,0.9c1.7,0,3.5-0.4,4.8-1.2
				c1.2-0.7,1.8-1.5,1.9-2.3c0.2-1.6-1.5-2.5-4-4c-1.3-0.8-3.5-1.8-6.5-2.4c-0.6-0.1-1.2-0.2-1.9-0.3C37.7,24.5,37.1,24.5,36.5,24.5
				L36.5,24.5L36.5,24.5z"/>
		</g>
		<g id="base2">
			<path class="st30" d="M16.8,49.9c-1.1,0-2.7-0.4-3.6-1.5c-0.1-0.1-0.2-0.2-0.3-0.4c-1.4-2.6,1.8-7,4.7-8.9c1.5-1,3.1-1.5,3.9-1.7
				s1.8-0.3,3.1-0.3c1,0,1.8,0.1,1.9,0.1c0.3,0,0.5,0.2,0.5,0.5c0,0.1,0,0.1,0,0.2L26.9,38c-0.3,0.7-0.8,2.2-1.7,4
				c-1.7,3.5-4.6,7.7-8.2,7.8L16.8,49.9z"/>
			<path class="st31" d="M24.7,37.6c1,0,1.8,0.1,1.8,0.1l0,0c-0.2,0.6-0.8,2.2-1.8,4.1c-1.7,3.3-4.4,7.4-7.7,7.6c-0.1,0-0.1,0-0.2,0
				c-1.2,0-2.5-0.4-3.2-1.3c-0.1-0.1-0.1-0.2-0.2-0.3c-1.3-2.2,1.7-6.4,4.6-8.3c1.7-1.1,3.6-1.6,3.8-1.6
				C22.7,37.7,23.8,37.6,24.7,37.6 M24.7,36.6L24.7,36.6c-1.3,0-2.3,0.1-3.2,0.3c-0.9,0.2-2.5,0.7-4.1,1.7c-3.1,2.1-6.5,6.7-4.9,9.6
				c0.1,0.1,0.2,0.3,0.3,0.4c1,1.2,2.7,1.6,4,1.6c0.1,0,0.2,0,0.2,0c3.1-0.2,6-2.9,8.6-8.1c0.9-1.8,1.5-3.4,1.7-4.1l0.1-0.1
				c0-0.1,0.1-0.2,0.1-0.4c0-0.5-0.4-1-0.9-1C26.6,36.7,25.7,36.6,24.7,36.6L24.7,36.6z"/>
		</g>
		<g id="base1">
			<path class="st30" d="M47.5,57.9c-0.5,0-1.1-0.2-1.6-0.7c-0.4-0.5-0.3-1-0.3-1.5c0.1-0.4,0.1-0.9,0.1-1.7c0-0.3-0.1-0.5-0.1-0.8
				c-0.1,0.2-0.1,0.3-0.2,0.5c-0.3,0.6-1.1,2.1-2.3,2.3c-0.1,0-0.2,0-0.2,0c-2.1,0-4.1-3.5-4.5-6.5c0-0.2-0.1-0.4-0.1-0.8
				c0-0.4,0-0.8,0.1-1.3c0.2-1.2,0.7-2.7,1.6-5.9l0.1-0.3c0-0.1,0.1-0.2,0.2-0.3c0.1,0,0.2-0.1,0.2-0.1c0.1,0,0.1,0,0.2,0
				c6.4,2.1,10.7,6,10.8,10.1c0,0.7-0.1,1.5-0.3,2.3c-0.5,2.2-1.8,4.4-3.4,4.6C47.6,57.9,47.6,57.9,47.5,57.9z"/>
			<path class="st31" d="M40.5,41.4c6.1,1.9,10.3,5.7,10.4,9.6c0,0.7-0.1,1.4-0.3,2.2c-0.5,2.1-1.7,4.1-3,4.2h-0.1
				c-0.4,0-0.9-0.2-1.2-0.5c-0.5-0.6,0.1-1.1-0.1-2.9c-0.1-1.4-0.7-2.8-0.7-2.8c0-0.1,0-0.1,0-0.1c0,0.5,0,1.4-0.5,2.4
				c-0.3,0.6-1,1.9-2,2c-0.1,0-0.1,0-0.2,0c-1.7,0-3.6-3.1-4-6c0-0.1-0.1-0.3-0.1-0.7s0-0.7,0.1-1.2C39,46.3,39.5,44.6,40.5,41.4
				 M40.5,40.4c-0.2,0-0.3,0-0.5,0.1s-0.4,0.3-0.5,0.6l-0.1,0.2c-0.9,3.2-1.4,4.8-1.6,6c-0.1,0.5-0.1,1-0.1,1.4s0,0.7,0.1,0.8
				c0.4,3.3,2.7,6.9,5,6.9c0.1,0,0.2,0,0.3,0c1-0.1,1.7-0.9,2.1-1.5c0,0.3,0,0.5-0.1,0.7c-0.1,0.5-0.2,1.2,0.4,1.9
				c0.5,0.5,1.2,0.9,2,0.9c0.1,0,0.2,0,0.2,0c2-0.2,3.3-2.8,3.8-4.9c0.2-0.8,0.3-1.7,0.3-2.5c-0.1-4.3-4.5-8.4-11.1-10.5
				C40.7,40.4,40.6,40.4,40.5,40.4L40.5,40.4z"/>
		</g>
	</g>
	<g id="layers" class="st12">
		<g id="layer4">
			<path class="st32" d="M25,12c-1.6,1.3-3.6,1.7-4,1.8c-2,0.4-4.1,0.2-6-0.5c0.2-0.6,0.4-1.2,0.6-1.6c0.9-1.9,2.2-2.9,3.7-4.1
				C21.2,6,24.2,5,24.2,5c0.5,2.3,0.7,4.3,0.8,5.9C24.9,11.3,25,11.7,25,12z"/>
		</g>
		<g id="layer3">
			<path class="st32" d="M49.7,31.3c0,0.5-0.6,1.1-1.4,1.6c-4.6,0.2-9.1-3.1-10.1-7.3c0.5,0.1,1.2,0.2,1.8,0.3
				c3.2,0.7,5.4,1.9,6.2,2.3C48.4,29.5,49.8,30.4,49.7,31.3z"/>
		</g>
		<g id="layer2">
			<path class="st32" d="M26.5,37.7L26.5,37.7c-0.2,0.6-0.8,2.2-1.8,4.1c-2.1,0.1-4.4,0.5-6.7,1.9c-2.2,1.4-3.5,3.1-4.5,4.4
				c-0.1-0.1-0.1-0.2-0.2-0.3c-1.3-2.2,1.7-6.4,4.6-8.3c1.7-1.1,3.6-1.6,3.8-1.6C23.7,37.4,26.5,37.7,26.5,37.7z"/>
		</g>
		<g id="layer1">
			<path class="st32" d="M50.9,51c0,0.7-0.1,1.4-0.3,2.2c-0.5,0.1-0.9,0.1-1.3,0c-2.6-0.7-2.9-6.1-5.1-6.1c-1.3,0-1.5,1.7-2.8,1.8
				c-0.8,0.1-1.7-0.5-2.6-1.4c0.2-1.2,0.7-2.9,1.6-6.1C46.5,43.3,50.8,47.1,50.9,51z"/>
		</g>
	</g>
</g>
<g id="icy-overlay_1_" class="st4">
	<g id="base_8_" class="st12">
		<g id="base3_1_">
			<path class="st33" d="M24.2,50.4c-2.2,0-4-1.8-4-4.1c0-0.6,0.1-1.1,0.3-1.6c0.6-1.5,2.1-2.4,3.7-2.4c0.5,0,1,0.1,1.4,0.3
				c1.6,0.6,2.6,2.1,2.6,3.8C28.3,48.6,26.5,50.4,24.2,50.4z"/>
			<path class="st34" d="M24.2,42.8c0.4,0,0.9,0.1,1.3,0.2c1.3,0.5,2.3,1.8,2.3,3.3c0,2-1.6,3.6-3.6,3.6s-3.5-1.6-3.5-3.6
				c0-0.5,0.1-1,0.3-1.4C21.5,43.7,22.8,42.8,24.2,42.8 M24.2,41.8c-1.8,0-3.4,1.1-4.2,2.7c-0.3,0.6-0.4,1.2-0.4,1.8
				c0,2.5,2,4.6,4.5,4.6s4.6-2,4.6-4.6c0-1.9-1.2-3.6-3-4.3C25.3,41.9,24.8,41.8,24.2,41.8L24.2,41.8z"/>
		</g>
		<g id="base2_2_">
			<path class="st33" d="M43.5,39.7c-2.6,0-4.7-2-4.8-4.6c0,0,0-0.1,0-0.2c0-0.4,0.1-0.9,0.2-1.3c0.6-2.1,2.5-3.5,4.6-3.5
				c0.2,0,0.4,0,0.6,0c0.3,0,0.5,0.1,0.8,0.2c0.5,0.2,1,0.4,1.4,0.7c0.8,0.5,1.3,1.3,1.7,2.2c0.2,0.5,0.3,1.1,0.3,1.7
				C48.3,37.6,46.1,39.7,43.5,39.7z"/>
			<path class="st34" d="M43.5,30.7c0.2,0,0.3,0,0.5,0c0.3,0,0.5,0.1,0.8,0.2c0.5,0.1,0.9,0.3,1.2,0.6c0.7,0.5,1.2,1.2,1.5,2
				c0.2,0.5,0.3,1,0.3,1.5c0,2.4-1.9,4.3-4.3,4.3c-2.3,0-4.2-1.8-4.3-4.1v-0.1c0-0.4,0.1-0.8,0.2-1.1C39.9,32,41.5,30.7,43.5,30.7
				 M43.5,29.7c-2.4,0-4.5,1.6-5.1,3.9c-0.1,0.4-0.2,0.9-0.2,1.4c0,0.1,0,0.2,0,0.2c0.1,2.8,2.4,5,5.3,5c2.9,0,5.3-2.4,5.3-5.3
				c0-0.6-0.1-1.3-0.3-1.8c-0.4-1-1-1.8-1.9-2.4c-0.4-0.3-1-0.6-1.5-0.8c-0.4-0.1-0.6-0.2-0.9-0.2C43.9,29.7,43.7,29.7,43.5,29.7
				L43.5,29.7z"/>
		</g>
		<g id="base1_1_">
			<path class="st33" d="M16.8,29.4c-3.3,0-5.9-2.7-5.9-5.9v-0.1c0.1-3.2,2.7-5.8,5.9-5.8c1.3,0,2.6,0.4,3.6,1.3
				c1.5,1.1,2.3,2.8,2.3,4.7C22.7,26.8,20.1,29.4,16.8,29.4z"/>
			<path class="st34" d="M16.8,18.1c1.3,0,2.4,0.4,3.3,1.1l0,0c1.3,1,2.1,2.5,2.1,4.3c0,3-2.4,5.4-5.4,5.4s-5.4-2.4-5.4-5.4v-0.1
				C11.4,20.5,13.8,18.1,16.8,18.1 M16.8,17.1c-3.5,0-6.3,2.8-6.4,6.2c0,0.1,0,0.2,0,0.2c0,3.5,2.9,6.4,6.4,6.4s6.4-2.9,6.4-6.4
				c0-2-0.9-3.8-2.4-5l0,0C19.6,17.6,18.2,17.1,16.8,17.1L16.8,17.1z"/>
		</g>
	</g>
	<g id="layers_1_" class="st12">
		<path id="layer3_1_" class="st35" d="M26,44.7c0,1.4-1.1,2.5-2.5,2.5c-1.3,0-2.4-1-2.5-2.3c0.6-1.3,1.8-2.1,3.3-2.1
			c0.4,0,0.9,0.1,1.3,0.2C25.8,43.5,26,44,26,44.7z"/>
		<path id="layer2_2_" class="st35" d="M47.5,33.5c-0.1,1.5-1.3,2.6-2.7,2.6c-1.5,0-2.7-1.2-2.7-2.7c0-1.2,0.8-2.3,2-2.6
			c0.3,0,0.5,0.1,0.8,0.2c0.5,0.1,0.9,0.3,1.2,0.6C46.7,32,47.2,32.7,47.5,33.5z"/>
		<path id="layer1_2_" class="st35" d="M20.7,21.6c0,2.7-2.2,4.9-4.9,4.9c-2,0-3.8-1.2-4.5-3c0-2.9,2.5-5.3,5.4-5.3
			c1.3,0,2.4,0.4,3.3,1.1l0,0C20.5,19.9,20.7,20.7,20.7,21.6z"/>
	</g>
</g>
<g id="mossy-overlay_1_" class="st4">
	<g id="base_9_" class="st12">
		<g id="base3_2_">
			<path class="st36" d="M18,43.3c-0.6,0-1.1-0.2-1.4-0.5s-0.6-1-0.4-1.6c0.1-0.4,0.4-0.7,0.8-0.9c-0.2,0-0.5-0.1-0.8-0.3
				c-0.2-0.3-0.3-0.7-0.3-1.1c0.1-0.7,0.4-1.3,0.9-1.7c0.4-0.3,0.8-0.4,1.3-0.4c0.3,0,0.7,0,1.1,0.1c0.5,0.1,1.1,0.1,1.8,0.2h0.2
				c0.9,0,1.8-0.1,2.7-0.3H24c0.1,0,0.3,0.1,0.4,0.2c0.1,0.1,0.2,0.3,0.1,0.5c-0.5,1.6-1.6,4.5-4.3,5.6C19.3,43.2,18.6,43.3,18,43.3
				z"/>
			<path class="st37" d="M23.9,37.2L23.9,37.2 M23.9,37.2c-0.3,1-1.3,4.2-4,5.2c-0.2,0.1-1.1,0.4-1.9,0.4c-0.4,0-0.8-0.1-1.1-0.4
				c-0.2-0.3-0.4-0.7-0.3-1.1c0.2-0.6,1-0.7,3-1.7c0.3-0.1,0.5-0.3,0.7-0.4c-0.4,0.1-1,0.3-1.7,0.4c-0.6,0.1-1.1,0.2-1.4,0.2
				s-0.5-0.1-0.6-0.2c-0.4-0.4-0.2-1.6,0.5-2.1c0.3-0.2,0.6-0.3,1-0.3c0.7,0,1.5,0.2,2.8,0.3c0.1,0,0.1,0,0.2,0
				C22.3,37.5,23.3,37.3,23.9,37.2 M23.9,36.2L23.9,36.2c-0.1,0-0.2,0-0.3,0c-0.8,0.2-1.7,0.3-2.5,0.3h-0.2c-0.7,0-1.2-0.1-1.7-0.2
				c-0.4-0.1-0.8-0.1-1.1-0.1c-0.6,0-1.1,0.2-1.6,0.5c-0.6,0.5-1,1.3-1.1,2.1c-0.1,0.6,0.1,1.1,0.4,1.5c0,0.1,0.1,0.1,0.1,0.1
				c-0.1,0.2-0.2,0.4-0.3,0.6c-0.2,0.7,0,1.5,0.5,2c0.3,0.3,0.9,0.7,1.8,0.7c0.7,0,1.4-0.2,2.3-0.5c2.8-1.1,4-4.1,4.5-5.8
				c0-0.1,0.1-0.2,0.1-0.3C24.9,36.6,24.4,36.2,23.9,36.2L23.9,36.2L23.9,36.2z M23.9,38.2L23.9,38.2L23.9,38.2L23.9,38.2z"/>
		</g>
		<g id="base2_1_">
			<path class="st38" d="M42.1,40.1c-0.2,0-0.3-0.1-0.4-0.2c-0.1-0.2-0.1-0.3,0-0.5c0.4-0.7,0.7-1.4,0.9-2.1c0,0,0-0.1,0-0.2
				c0.1-0.3,0.2-0.6,0.2-0.9c0.1-0.4,0.1-0.8,0.1-1.1c0-0.4,0-0.8,0-1.2c-0.1-1.1-0.1-2.1,0.4-3.4c0.3-0.7,0.9-1.8,2.1-2.5
				c0.2-0.1,0.4-0.2,0.7-0.3c0.2-0.1,0.5-0.2,0.8-0.2c0.2,0,0.3,0,0.5,0.1c0.1,0,0.2,0.1,0.2,0.1c0.1,0.1,0.2,0.2,0.2,0.3
				c0,0.1,0.1,0.1,0.1,0.2c0.1,0.4,0.1,0.9-0.1,1.6c-0.1,0.3-0.1,0.5-0.2,0.8c0.1-0.1,0.1-0.2,0.1-0.3c0.5-1,0.9-1.8,1.7-1.9h0.1
				c0.6,0,1.1,0.5,1.2,0.7c0.3,0.3,0.4,0.7,0.5,1.2c0,0.4,0,0.8-0.1,1.3c-0.1,0.9-0.2,1.6-0.5,2.3c0,0,0,0,0,0.1s-0.1,0.2-0.1,0.3
				c-0.1,0.2-0.2,0.6-0.5,1.1c-0.4,0.9-1.2,2.3-2.7,3.3c-0.9,0.6-1.8,0.8-2.8,1.1c-0.3,0.1-0.6,0.1-0.8,0.2h-0.1
				C43.1,40,42.6,40.1,42.1,40.1L42.1,40.1z"/>
			<path class="st37" d="M46.8,27.9c0.1,0,0.2,0,0.3,0.1h0.1c0,0,0.1,0.1,0.1,0.2v0.1c0.1,0.3,0.1,0.7-0.1,1.3
				c-0.2,0.7-0.5,1.6-0.8,2.7c-0.3,0.8-0.5,1.5-0.7,1.9c0,0,0,0,0.1-0.1c0.8-0.9,1.3-1.7,1.6-2.4l0.2-0.4c0.7-1.4,1-2.5,1.7-2.5
				c0,0,0,0,0.1,0c0.4,0,0.8,0.4,0.8,0.5c0.2,0.3,0.3,0.6,0.4,1c0,0.3,0,0.7-0.1,1.2c-0.1,0.9-0.2,1.6-0.5,2.3l0,0
				c0,0.1-0.1,0.2-0.1,0.3c-0.1,0.2-0.2,0.6-0.4,1c-0.4,0.8-1.1,2.2-2.5,3.1c-0.9,0.6-1.7,0.8-2.7,1c-0.3,0.1-0.5,0.1-0.8,0.2l0,0
				c-0.6,0.1-1.1,0.1-1.5,0.1c0.3-0.5,0.7-1.2,0.9-2.2c0-0.1,0-0.1,0-0.2c0.1-0.3,0.2-0.7,0.2-1c0.1-0.4,0.1-0.8,0.1-1.2
				c0-1.6-0.4-2.7,0.3-4.5c0.2-0.4,0.8-1.6,1.8-2.3c0.2-0.1,0.4-0.2,0.6-0.3C46.3,28,46.6,27.9,46.8,27.9 M46.8,26.9
				c-0.4,0-0.7,0.1-1,0.2s-0.6,0.2-0.8,0.4c-1.2,0.8-1.9,2-2.2,2.7c-0.6,1.5-0.5,2.6-0.5,3.7c0,0.4,0.1,0.8,0,1.2c0,0.3,0,0.7-0.1,1
				c0,0.3-0.1,0.5-0.2,0.9c0,0.1,0,0.1-0.1,0.2c-0.2,0.7-0.5,1.3-0.8,1.9c-0.2,0.3-0.2,0.7,0,1s0.5,0.5,0.9,0.5l0,0
				c0.5,0,1.1-0.1,1.6-0.2h0.1c0.2,0,0.5-0.1,0.7-0.1h0.1c1-0.2,1.9-0.5,3-1.2c1.6-1.1,2.4-2.6,2.8-3.5c0.2-0.5,0.4-0.9,0.5-1.1
				c0-0.1,0.1-0.2,0.1-0.3v-0.1c0.2-0.7,0.3-1.5,0.5-2.4c0.1-0.5,0.1-1,0.1-1.4c0-0.6-0.2-1.2-0.6-1.6c-0.2-0.2-0.8-0.8-1.6-0.8
				c0,0-0.1,0-0.2,0c-0.4,0-0.7,0.2-0.9,0.4c0-0.1,0-0.1,0-0.2c0-0.2-0.1-0.3-0.1-0.3c-0.1-0.2-0.2-0.3-0.4-0.5
				c-0.1-0.1-0.2-0.2-0.4-0.2C47.2,27,47,26.9,46.8,26.9L46.8,26.9z"/>
		</g>
		<g id="base1_2_">
			<path class="st36" d="M21.1,23c-5.6,0-9-8.3-9.1-8.3c-0.4-1.1-0.7-2.4-0.9-3.9C10.7,7.5,11,4.6,11,4.4S11.2,4,11.3,4s0.1,0,0.2,0
				c0.1,0,0.3,0.1,0.4,0.2c1.7,1.8,3.6,2.9,5.5,3.4c1.2,0.3,2,0.3,2.9,0.3c1.1,0,2.2,0,3.7,0.8c0.7,0.3,2.9,1.6,4,4.2l0.2,0.4
				c0.3,0.8,0.7,2,0.4,3.5c-0.2,0.8-0.5,1.5-0.7,1.9c-0.1,0.2-0.3,0.2-0.4,0.2s-0.1,0-0.2-0.1c-0.6-0.3-1.3-0.6-2.1-1.1
				c-1.9-1-3.4-2-4.3-2.6c-0.1-0.1-0.2-0.1-0.3-0.2c0.5,0.4,1,0.7,1.5,1.1c0.8,0.6,1.8,1.3,3.3,2.5c0.4,0.3,0.8,0.6,1,0.8l0.2,0.2
				c0.1,0.1,0.2,0.2,0.2,0.3c0,0.1,0,0.3-0.1,0.4c-0.3,0.3-0.7,0.7-1.1,1.1c-1.2,1-2.5,1.6-3.9,1.7C21.4,23,21.3,23,21.1,23z"/>
			<path class="st37" d="M11.5,4.5c2.2,2.3,4.2,3.2,5.8,3.6c2.8,0.7,4-0.2,6.5,1c0.3,0.2,2.6,1.4,3.8,4c0,0.1,0.1,0.2,0.2,0.4
				c0.3,0.8,0.7,1.9,0.4,3.2c-0.1,0.7-0.4,1.3-0.6,1.7c-0.5-0.3-1.3-0.6-2.1-1.1c-2-1.1-3.5-2.1-4.3-2.6c-1.2-0.8-2.6-1.9-4.1-3.2
				c-0.1-0.1-0.3-0.2-0.4-0.3c1.1,1.7,2.2,2.9,3,3.7c1.4,1.3,2.6,1.8,5.4,4.1c0.5,0.4,1,0.8,1.3,1c-0.3,0.3-0.6,0.7-1.1,1
				c-0.9,0.8-2.1,1.5-3.6,1.6c-0.1,0-0.3,0-0.4,0c-5,0-8.3-7.2-8.6-8c-0.4-1.2-0.7-2.5-0.9-3.8C11.2,7.5,11.5,4.5,11.5,4.5
				 M11.5,3.5c-0.1,0-0.2,0-0.3,0.1c-0.4,0.1-0.6,0.5-0.7,0.8c0,0.1-0.3,3.1,0.1,6.5c0.2,1.5,0.5,2.8,0.9,4c0,0.1,3.6,8.7,9.5,8.7
				c0.2,0,0.3,0,0.5,0c1.5-0.1,2.9-0.7,4.2-1.9c0.5-0.4,0.9-0.8,1.2-1.1c0.2-0.2,0.3-0.5,0.3-0.7s-0.1-0.4-0.2-0.6c0,0,0,0,0.1,0
				c0.1,0.1,0.3,0.1,0.4,0.1c0.3,0,0.7-0.2,0.9-0.5c0.3-0.4,0.6-1.1,0.8-2c0.3-1.6-0.1-2.9-0.5-3.8V13c0-0.1-0.1-0.2-0.1-0.3
				c-1.2-2.6-3.4-4-4.2-4.4c-1.6-0.8-2.8-0.8-3.9-0.8c-0.8,0-1.6,0-2.7-0.3c-1.9-0.5-3.6-1.6-5.3-3.3C12,3.6,11.8,3.5,11.5,3.5
				L11.5,3.5z"/>
		</g>
	</g>
	<g id="layers_2_" class="st12">
		<path id="layer3_2_" class="st36" d="M47.2,29.6c-0.2,0.7-0.5,1.6-0.8,2.7c-0.3,0.8-0.5,1.5-0.7,1.9c-0.5,0.7-1.1,1.3-1.2,1.2
			c-0.1-0.1,0.6-0.8,1-1.9c0.6-1.6,0.4-3.3,0.3-3.9c-0.1-0.5-0.2-1-0.3-1.3c0.2-0.1,0.4-0.2,0.6-0.3c0.3-0.1,0.6-0.2,0.9-0.1h0.1
			c0,0,0.1,0.1,0.1,0.2v0.1C47.4,28.6,47.3,29,47.2,29.6z"/>
		<g id="layer2_1_">
			<path class="st36" d="M50.6,30.3c0,0.3,0,0.7-0.1,1.2c-0.1,0.9-0.2,1.6-0.5,2.3l0,0c0,0.1-0.1,0.2-0.1,0.3
				c-0.1,0.2-0.2,0.6-0.4,1c-0.4,0.8-1.1,2.2-2.5,3.1c-0.9,0.6-1.7,0.8-2.7,1c-0.3,0.1-0.5,0.1-0.8,0.2c0.5-0.3,1.1-0.8,1.7-1.4
				c0.4-0.4,1.5-1.6,2-3.3c0.4-1.2,0.2-1.7,0.3-3.4c0.7-1.4,1-2.5,1.7-2.5c0.4,0,0.8,0.4,0.9,0.5C50.5,29.6,50.6,29.9,50.6,30.3z"/>
		</g>
		<path id="layer1_1_" class="st38" d="M27.7,13.4c-0.2,0.4-0.5,0.6-0.8,0.9c-1.6,1-4.4-0.3-6.1-1.2c-3-1.5-4.7-3.6-4.9-3.4
			c-0.1,0.1,0.6,1.4,0.6,1.4l0,0c1.1,1.7,2.2,2.9,3,3.7c1.4,1.3,2.6,1.8,5.4,4.1c0.5,0.4,1,0.8,1.3,1c-0.3,0.3-0.6,0.7-1.1,1
			c-0.9,0.1-2.2,0-3.3-0.3c-5-1.2-7.9-5.6-10.2-9.9c-0.4-3.3-0.1-6.2-0.1-6.2c2.2,2.3,4.2,3.2,5.8,3.6c2.8,0.7,4-0.2,6.5,1
			c0.3,0.2,2.6,1.4,3.8,4C27.5,13.1,27.6,13.3,27.7,13.4z"/>
	</g>
</g>
<g id="metal-overlay_1_" class="st4">
	<g id="base_10_" class="st12">
		<g id="base3_3_">
			<path class="st39" d="M40.9,53.7c-0.1,0-0.1,0-0.2,0c-0.2-0.1-0.3-0.4-0.3-0.6l2.3-7.4l0.9-2.8c0.1-0.3,0.3-0.4,0.6-0.4
				c0.2,0,0.4,0.1,0.5,0.2l1.3,2l3.2-3.5c0.1-0.1,0.3-0.2,0.5-0.2s0.4,0.1,0.5,0.3s0.1,0.4,0.1,0.6L47.5,50
				c-0.1,0.3-0.3,0.4-0.6,0.4c-0.1,0-0.4-0.1-0.5-0.2l-1.7-1.8l-3.4,5.1C41.2,53.6,41,53.7,40.9,53.7z"/>
			<path class="st40" d="M49.7,41.3c0.1,0,0.1,0.1,0.1,0.2L47,49.8l-0.1,0.1h-0.1l-2.1-2.2h-0.1c0,0-0.1,0-0.1,0.1l-3.6,5.5l2.3-7.4
				l0.5-1.7l0.3-1.1c0-0.1,0.1-0.1,0.1-0.1s0.1,0,0.1,0.1l1.5,2.3l0.1,0.1h0.1L49.7,41.3C49.6,41.3,49.6,41.3,49.7,41.3 M49.7,40.3
				L49.7,40.3c-0.3,0-0.6,0.1-0.8,0.4L46,43.8l-0.9-1.4l0,0c-0.2-0.3-0.5-0.4-0.9-0.4c-0.5,0-0.9,0.3-1.1,0.8l-0.3,1.1l-0.5,1.7
				L40,53c-0.1,0.5,0.1,1,0.5,1.2c0.1,0.1,0.3,0.1,0.4,0.1c0.3,0,0.6-0.2,0.8-0.4l3-4.5l1.3,1.4c0.2,0.2,0.5,0.4,0.8,0.4
				c0.5,0,0.9-0.3,1-0.7l2.8-8.4c0.1-0.3,0.1-0.7-0.2-1C50.4,40.5,50,40.3,49.7,40.3L49.7,40.3z"/>
		</g>
		<g id="base2_3_">
			<path class="st41" d="M18.5,41.3c-0.2,0-0.4-0.1-0.5-0.3l-7.3-10.3c-0.1-0.2-0.2-0.4-0.1-0.6c0.1-0.2,0.3-0.3,0.5-0.3l4.4,0.4
				l-1.4-5.4c0-0.2,0-0.4,0.1-0.5s0.3-0.2,0.5-0.2s0.4,0.1,0.5,0.3l6.1,9.9c0.1,0.2,0.1,0.4,0,0.6c-0.1,0.2-0.3,0.3-0.5,0.3
				c0,0-0.1,0-0.2,0l-3.4-0.9l1.8,6.3c0,0.1,0,0.4-0.1,0.5C18.9,41.2,18.7,41.3,18.5,41.3z"/>
			<path class="st40" d="M14.8,24.5C14.8,24.5,14.9,24.5,14.8,24.5l6.2,10c0,0.1,0,0.2-0.1,0.2l0,0l-4.1-1.1l0,0h-0.1
				c0,0-0.1,0.1,0,0.1l2,6.9c0,0.1,0,0.1-0.1,0.1h-0.1l-7.3-10.3c-0.1-0.1,0-0.2,0.1-0.2l0,0l3.5,0.3l1.3,0.1c0.1,0,0.1-0.1,0.1-0.1
				l-1.6-5.9C14.7,24.6,14.7,24.5,14.8,24.5 M14.8,23.5c-0.3,0-0.7,0.2-0.9,0.4c-0.2,0.3-0.3,0.6-0.2,1l1.3,4.8h-0.1l-3.5-0.3h-0.1
				c-0.4,0-0.8,0.2-1,0.6s-0.1,0.8,0.1,1.2l7.3,10.2c0.2,0.3,0.5,0.5,0.9,0.5s0.7-0.2,0.9-0.5c0.2-0.3,0.3-0.7,0.2-1L18,34.9
				l2.6,0.7c0.1,0,0.2,0,0.3,0c0.4,0,0.8-0.2,1-0.5s0.2-0.8,0-1.1l-6.1-10C15.5,23.7,15.2,23.5,14.8,23.5L14.8,23.5z"/>
		</g>
		<g id="base1_3_">
			<path class="st41" d="M35.2,37.2c-0.1,0-0.4-0.1-0.5-0.2s-0.2-0.3-0.1-0.5l4-24c0.1-0.3,0.3-0.5,0.6-0.5c0.1,0,0.4,0.1,0.5,0.2
				l5,5.2l7-13l0.1-0.1c0-0.3,0.2-0.4,0.4-0.4s0.4,0.1,0.5,0.2s0.2,0.4,0.1,0.5l-4.5,24c0,0.3-0.3,0.5-0.6,0.5
				c-0.1,0-0.4-0.1-0.5-0.2l-1.6-1.6l-1.1-1.1L42,23.6l-6.4,13.2C35.7,37.1,35.5,37.2,35.2,37.2z"/>
			<path class="st40" d="M52.2,4.4C52.3,4.4,52.3,4.5,52.2,4.4l-4.4,24.1c0,0.1-0.1,0.1-0.1,0.1h-0.1L46.1,27L45,25.8l-2.9-3H42
				c0,0-0.1,0-0.1,0.1l-0.3,0.7l-6.3,13.1c0,0.1-0.1,0.1-0.1,0.1c-0.1,0-0.1-0.1-0.1-0.1l0.9-5.3l3.1-18.7c0-0.1,0.1-0.1,0.1-0.1
				h0.1l5.3,5.6h0.1c0,0,0.1,0,0.1-0.1l4.5-8.3l2.8-5.1L52.2,4.4L52.2,4.4 M52.2,3.4c-0.4,0-0.8,0.2-1,0.6l-0.1,0.1l-2.7,5.1
				l-3.9,7.3L40,11.8c-0.2-0.2-0.5-0.4-0.8-0.4c-0.5,0-1,0.4-1.1,0.9L35,31.1l-0.9,5.3c-0.1,0.3,0,0.7,0.3,0.9
				c0.2,0.2,0.5,0.4,0.8,0.4c0.4,0,0.8-0.3,1-0.7l6.1-12.6l2,2.1l1.1,1.1l1.6,1.6c0.2,0.2,0.5,0.4,0.8,0.4c0.5,0,1-0.4,1.1-0.9
				l4.5-24c0.1-0.3,0-0.6-0.2-0.9C52.9,3.6,52.6,3.4,52.2,3.4L52.2,3.4z"/>
		</g>
	</g>
	<g id="layers_3_" class="st12">
		<g id="layer3_3_">
			<path class="st39" d="M18.6,40.6c0,0.1-0.1,0.2-0.2,0.1l-7.3-10.3c-0.1-0.1,0-0.2,0.1-0.2l3.5,0.3c0.6,1,1.3,2,1.9,3
				c0,0-0.1,0.1,0,0.1L18.6,40.6z"/>
		</g>
		<path id="layer2_3_" class="st39" d="M52.3,4.6l-4.5,24c0,0.1-0.1,0.1-0.2,0.1L46.1,27L45,25.8c2.4-7.1,4.7-14.2,7.1-21.3l0.1-0.1
			C52.2,4.4,52.4,4.4,52.3,4.6z"/>
		<path id="layer1_3_" class="st39" d="M36,31.2c1.9-2.6,3.8-5.1,5.6-7.7l-6.3,13.1c-0.1,0.1-0.2,0.1-0.2-0.1L36,31.2z"/>
	</g>
</g>
</svg>
